<svg width="229px" height="229px" viewBox="0 0 32 32" xmlns="http://www.w3.org/2000/svg">
    <circle cx="16" cy="16" r="16" fill="#FEEA3A"/>
    <g id="Add">
        <path d="M16,1C11.9,1,8.1,2.7,5.4,5.4C2.7,8.1,1,11.9,1,16c0,8.3,6.7,15,15,15c4.1,0,7.9-1.7,10.6-4.4C29.3,23.9,31,20.1,31,16C31,7.7,24.3,1,16,1z" fill="#F44236"></path>
        <path d="M24,15h-7V8c0-0.5-0.5-1-1-1s-1,0.5-1,1v7H8c-0.5,0-1,0.5-1,1s0.5,1,1,1h7v7c0,0.5,0.5,1,1,1s1-0.5,1-1v-7h7c0.5,0,1-0.5,1-1S24.5,15,24,15z" fill="#FEEA3A"></path>
    </g>
</svg>
