<svg width="24" height="24" viewBox="0 0 24 24" fill="none" xmlns="http://www.w3.org/2000/svg">
<circle cx="12" cy="12" r="12" fill="black"/>
<circle cx="12" cy="12" r="10" fill="white"/>
<g clip-path="url(#clip0_2731_8955)">
<path fill-rule="evenodd" clip-rule="evenodd" d="M12 4C9.87827 4 7.84344 4.84285 6.34315 6.34315C4.84285 7.84344 4 9.87827 4 12C4 14.1217 4.84285 16.1566 6.34315 17.6569C7.84344 19.1571 9.87827 20 12 20C14.1217 20 16.1566 19.1571 17.6569 17.6569C19.1571 16.1566 20 14.1217 20 12C20 9.87827 19.1571 7.84344 17.6569 6.34315C16.1566 4.84285 14.1217 4 12 4ZM12 5.71429C12.8255 5.71429 13.6428 5.87687 14.4054 6.19276C15.1681 6.50864 15.861 6.97165 16.4447 7.55533C17.0284 8.13901 17.4914 8.83194 17.8072 9.59456C18.1231 10.3572 18.2857 11.1745 18.2857 12C18.2857 12.8255 18.1231 13.6428 17.8072 14.4054C17.4914 15.1681 17.0284 15.861 16.4447 16.4447C15.861 17.0284 15.1681 17.4914 14.4054 17.8072C13.6428 18.1231 12.8255 18.2857 12 18.2857C10.3329 18.2857 8.73413 17.6235 7.55533 16.4447C6.37653 15.2659 5.71429 13.6671 5.71429 12C5.71429 10.3329 6.37653 8.73413 7.55533 7.55533C8.73413 6.37653 10.3329 5.71429 12 5.71429ZM12 7.27902C11.8439 7.27916 11.6894 7.31004 11.5452 7.3699C11.4011 7.42977 11.2701 7.51745 11.1598 7.62792C11.0496 7.7384 10.9621 7.86952 10.9025 8.01379C10.8429 8.15806 10.8123 8.31266 10.8125 8.46875C10.8128 8.78361 10.938 9.08549 11.1606 9.30813C11.3833 9.53077 11.6851 9.65597 12 9.65625C12.3149 9.65597 12.6167 9.53077 12.8394 9.30813C13.062 9.08549 13.1872 8.78361 13.1875 8.46875C13.1877 8.31266 13.1571 8.15806 13.0975 8.01379C13.0379 7.86952 12.9504 7.7384 12.8402 7.62792C12.7299 7.51745 12.5989 7.42977 12.4548 7.3699C12.3106 7.31004 12.1561 7.27916 12 7.27902ZM12.7857 10.4397L10.4308 11.2254V12.0089H11.154L11.2143 15.9353H10.4308V16.721H13.5692V15.9353H12.7857V10.4397Z" fill="black"/>
</g>
<defs>
<clipPath id="clip0_2731_8955">
<rect width="16" height="16" fill="white" transform="translate(4 4)"/>
</clipPath>
</defs>
</svg>
