<svg width="24" height="24" viewBox="0 0 24 24" fill="none" xmlns="http://www.w3.org/2000/svg">
<circle cx="12" cy="12" r="12" fill="black"/>
<circle cx="12" cy="12" r="10" fill="white"/>
<path fill-rule="evenodd" clip-rule="evenodd" d="M6 5V15H8.00008V11.5H10.5002C12.4763 11.5 14.0003 10.5 14.0003 8.25C14.0003 6 12.4871 5 10.9689 5H6ZM8.00008 7H10.5002C11.4638 7 12.0002 7.52543 12.0002 8.25C12.0002 8.97457 11.3684 9.5 10.5002 9.5H8.00008V7Z" fill="black"/>
<g clip-path="url(#clip0_2731_8931)">
<path d="M15.1638 11.7685C15.1638 12.1934 14.8197 12.538 14.3948 12.538C13.9698 12.538 13.6253 12.1934 13.6253 11.7685C13.6253 11.3436 13.9698 11 14.3948 11C14.8197 11 15.1638 11.3441 15.1638 11.7685ZM14.4131 18.0071C13.3935 18.0071 12.5645 17.1781 12.5645 16.1591C12.5645 15.4721 12.9456 14.878 13.5025 14.5602V14.0021C12.6625 14.3577 12.0714 15.1906 12.0714 16.1586C12.0714 17.4491 13.1214 18.5 14.4128 18.5C15.2699 18.5 16.0134 18.0305 16.4207 17.341L16.1678 16.7075C15.9323 17.458 15.2402 18.0071 14.4131 18.0071ZM17.8466 16.8826H17.2912C17.2912 16.8826 16.9546 15.923 16.8606 15.668C16.7997 15.4995 16.6422 15.377 16.4526 15.377H15.1031V14.4334H16.383C16.5524 14.4334 16.69 14.297 16.69 14.1268C16.69 13.9566 16.5524 13.8184 16.383 13.8184H15.1031C15.1031 13.8184 15.0295 12.6995 14.3941 12.6995C13.9591 12.6995 13.81 13.0524 13.81 13.4874V15.463C13.81 15.8984 14.1634 16.2519 14.598 16.2519C14.6109 16.2519 14.6219 16.2448 14.6345 16.2448C14.6465 16.2453 14.658 16.2519 14.6711 16.2519H16.3166L16.8641 17.6199H17.8462C18.0491 17.6199 18.2146 17.4545 18.2146 17.251C18.2151 17.0471 18.0496 16.8826 17.8466 16.8826Z" fill="black"/>
</g>
<defs>
<clipPath id="clip0_2731_8931">
<rect width="7.5" height="7.5" fill="white" transform="translate(11 11)"/>
</clipPath>
</defs>
</svg>
