<svg width="24" height="24" viewBox="0 0 24 24" fill="none" xmlns="http://www.w3.org/2000/svg">
<circle cx="12" cy="12" r="12" fill="black"/>
<circle cx="12" cy="12" r="10" fill="white"/>
<path d="M12 18.6663H8.00004C8.00004 18.3127 8.14052 17.9736 8.39056 17.7235C8.64061 17.4735 8.97975 17.333 9.33337 17.333V9.33301H5.33337V7.33301H14.6667V9.33301H10.6667V17.333C11.0203 17.333 11.3595 17.4735 11.6095 17.7235C11.8596 17.9736 12 18.3127 12 18.6663ZM18.6667 5.33301V18.6663H17.3334L17.3334 13.4284L15.9999 13.4284L14 13.4284V18.6663H12.6667L12.6667 12.7618C12.6667 12.4081 12.8072 12.069 13.0572 11.819C13.3073 11.5689 13.6464 11.4284 14 11.4284H15.6667H17.3334L17.3334 5.33301H18.6667Z" fill="black"/>
</svg>
