<svg width="20" height="20" viewBox="0 0 20 20" fill="none" xmlns="http://www.w3.org/2000/svg">
<circle cx="10" cy="10" r="10" fill="#D364A0"/>
<path d="M11.8333 11.8V4.08333C11.8333 3.5308 11.6138 3.0009 11.2231 2.61019C10.8324 2.21949 10.3025 2 9.75 2C9.19747 2 8.66756 2.21949 8.27686 2.61019C7.88616 3.0009 7.66667 3.5308 7.66667 4.08333V11.8C6.99773 12.247 6.49027 12.8972 6.21923 13.6547C5.94818 14.4121 5.92793 15.2367 6.16146 16.0066C6.395 16.7765 6.86993 17.4508 7.51611 17.9301C8.1623 18.4093 8.94549 18.668 9.75 18.668C10.5545 18.668 11.3377 18.4093 11.9839 17.9301C12.6301 17.4508 13.105 16.7765 13.3385 16.0066C13.5721 15.2367 13.5518 14.4121 13.2808 13.6547C13.0097 12.8972 12.5023 12.247 11.8333 11.8Z" stroke="white" stroke-width="1.5" stroke-linecap="round" stroke-linejoin="round"/>
<path d="M9 8.66663L10.6667 8.66663" stroke="white" stroke-width="1.5" stroke-linecap="round" stroke-linejoin="round"/>
<path d="M9 6.16663L10.6667 6.16663" stroke="white" stroke-width="1.5" stroke-linecap="round" stroke-linejoin="round"/>
</svg>
