<svg width="24" height="24" viewBox="0 0 24 24" fill="none" xmlns="http://www.w3.org/2000/svg">
<circle cx="12" cy="12" r="12" fill="black"/>
<circle cx="12" cy="12" r="10" fill="white"/>
<g clip-path="url(#clip0_2731_8889)">
<path d="M12 3.84375C7.49543 3.84375 3.84375 7.49543 3.84375 12C3.84375 16.5046 7.49543 20.1562 12 20.1562C16.5046 20.1562 20.1562 16.5046 20.1562 12C20.1562 7.49543 16.5046 3.84375 12 3.84375ZM4.68841 11.8838C5.4062 11.6258 6.07819 11.2408 6.67875 10.7344C7.34812 10.1719 7.8825 9.49687 8.27063 8.74875C8.72062 8.97937 9.15938 9.22687 9.5925 9.49125C7.92564 11.54 6.82219 14.0575 6.49496 16.8134C5.36951 15.5273 4.6875 13.8433 4.6875 12C4.6875 11.9612 4.6878 11.9224 4.68841 11.8838ZM11.1958 19.2688C9.59756 19.094 8.15409 18.4041 7.03501 17.3686C7.27359 14.5176 8.37865 11.9056 10.0931 9.81187C10.6556 10.1775 11.1956 10.5656 11.7188 10.9819C11.6119 11.0944 11.5106 11.2069 11.4094 11.3306C10.3125 12.675 9.80625 14.3681 9.98062 16.1006C10.1001 17.2631 10.5235 18.3467 11.1958 19.2688ZM17.0353 17.3027C15.724 18.5482 13.9513 19.3125 12 19.3125H11.9927C11.1946 18.3997 10.6972 17.2656 10.5712 16.0388C10.4138 14.4694 10.875 12.9281 11.8706 11.7019C11.9662 11.5837 12.0731 11.4656 12.18 11.3531C14.1442 13.0136 15.7914 15.0301 17.0353 17.3027ZM19.0733 10.1378C19.2294 10.7323 19.3125 11.3564 19.3125 12C19.3125 13.8639 18.6152 15.5649 17.4672 16.8563C16.2109 14.6054 14.5673 12.6045 12.6131 10.9481C13.5188 10.1663 14.6438 9.6825 15.8588 9.55875C16.983 9.44451 18.0887 9.64959 19.0733 10.1378ZM15.7245 5.70574C17.1326 6.54075 18.2364 7.83483 18.8298 9.38179C17.8772 9.00688 16.8424 8.86041 15.7969 8.96812C14.4244 9.10875 13.1587 9.66563 12.1462 10.5656C11.6119 10.1381 11.055 9.73312 10.4812 9.35625C11.9069 7.76315 13.6987 6.49953 15.7245 5.70574ZM8.97791 5.33923C9.89901 4.92064 10.9223 4.6875 12 4.6875C13.0866 4.6875 14.1179 4.92451 15.0449 5.34966C13.0923 6.19475 11.3646 7.4597 9.975 9.03562C9.5025 8.74312 9.01875 8.4675 8.51813 8.20875C8.76 7.6125 8.91187 6.97688 8.96812 6.31875C8.99962 5.98961 9.00064 5.66266 8.97791 5.33923ZM6.42012 7.27349C6.97664 6.61715 7.64689 6.06029 8.40043 5.63333C8.40582 5.84444 8.4003 6.05628 8.38312 6.26813C8.3325 6.85312 8.1975 7.41563 7.98938 7.95C7.4756 7.70355 6.95251 7.47882 6.42012 7.27349ZM4.72743 11.2313C4.86158 9.94716 5.32805 8.76197 6.03931 7.76311C6.61984 7.97907 7.18902 8.21866 7.74188 8.48438C7.3875 9.165 6.90375 9.7725 6.29625 10.2844C5.81332 10.6917 5.28335 11.005 4.72743 11.2313Z" fill="black"/>
</g>
<defs>
<clipPath id="clip0_2731_8889">
<rect width="18" height="18" fill="white" transform="translate(3 3)"/>
</clipPath>
</defs>
</svg>
