<svg width="24" height="24" viewBox="0 0 24 24" fill="none" xmlns="http://www.w3.org/2000/svg">
<circle cx="12" cy="12" r="12" fill="black"/>
<circle cx="12" cy="12" r="10" fill="white"/>
<path fill-rule="evenodd" clip-rule="evenodd" d="M6 5V15H8.00008V11.5H10.5002C12.4763 11.5 14.0003 10.5 14.0003 8.25C14.0003 6 12.4871 5 10.9689 5H6ZM8.00008 7H10.5002C11.4638 7 12.0002 7.52543 12.0002 8.25C12.0002 8.97457 11.3684 9.5 10.5002 9.5H8.00008V7ZM15 12V12.5939L15.5004 13V13.75H12.5003V13.5H13.0003C13.4797 13.5 13.4557 13 13.0003 13H11.5002C11.0002 13 11.0002 13.4521 11.5002 13.5H12.0002V13.75L11.4377 15.0312C11.2964 15.0014 11.148 15 11.0002 15C9.97837 15 9.00012 15.7939 9.00012 17C9.00012 18.2061 9.97837 19 11.0002 19C12.022 19 12.9378 18.1436 12.9378 16.9375C12.9378 16.7867 12.9339 16.6354 12.9065 16.5H13.7503L15.5722 14.5L15.9379 15.2812C15.3833 15.6158 15.0003 16.2297 15.0003 17C15.0003 18.2061 15.9786 19 17.0004 19C18.0222 19 18.938 18.1436 18.938 16.9375C18.938 15.7314 18.0222 15 17.0004 15C16.8503 15 16.7081 15.0295 16.5629 15.0625L16.0004 13.75L16 12.8L15 12ZM12.4065 14.5H14.6003L13.4065 15.75H12.5628C12.4226 15.5634 12.2583 15.4014 12.0627 15.2812L12.4065 14.5ZM11.0002 16C11.6353 16 12.0002 16.5492 12.0002 17C12.0002 17.4508 11.6353 18 11.0002 18C10.3651 18 10.0002 17.4508 10.0002 17C10.0002 16.5492 10.3651 16 11.0002 16ZM17.0004 16C17.6355 16 18.0005 16.5492 18.0005 17C18.0005 17.4508 17.6355 18 17.0004 18C16.3653 18 16.0004 17.4508 16.0004 17C16.0004 16.5492 16.3653 16 17.0004 16Z" fill="black"/>
</svg>
