<svg width="24" height="24" viewBox="0 0 24 24" fill="none" xmlns="http://www.w3.org/2000/svg">
<circle cx="12" cy="12" r="12" fill="black"/>
<circle cx="12" cy="12" r="10" fill="white"/>
<path d="M7.42857 6.28613C6.28571 6.28613 5.14286 7.42899 5.14286 8.57185C7.42857 8.57185 8.57143 10.373 8.57143 12.0004H15.4286C15.4286 10.2654 16.5714 8.57185 18.8571 8.57185C18.8571 7.42899 17.7143 6.28613 16.5714 6.28613H7.42857ZM5.14286 9.7147C4 9.7147 4 10.8576 4 10.8576C4 11.4498 4.55067 12.0004 5.14286 12.0004V15.429C5.14286 16.1664 5.62669 16.5718 6.28571 16.5718H6.85714C6.85714 16.5718 6.85714 17.7147 8 17.7147C9.14286 17.7147 9.14286 16.5718 9.14286 16.5718H14.8571C14.8571 16.5718 14.8571 17.7147 16 17.7147C17.1429 17.7147 17.1429 16.5718 17.1429 16.5718H17.7143C18.2966 16.5718 18.8571 16.0184 18.8571 15.429V12.0004C19.4224 12.0004 20 11.5574 20 10.8576C20 10.8576 20 9.7147 18.8571 9.7147C17.7143 9.7147 16.5714 10.8576 16.5714 13.1433H7.42857C7.42857 10.8576 6.28571 9.7147 5.14286 9.7147Z" fill="black"/>
</svg>
