<svg width="24" height="24" viewBox="0 0 24 24" fill="none" xmlns="http://www.w3.org/2000/svg">
<circle cx="12" cy="12" r="12" fill="black"/>
<circle cx="12" cy="12" r="10" fill="white"/>
<path d="M6.99996 15C6.74923 15 6.67844 15.1481 6.55308 15.3989L5.4648 18.5293C5.2785 18.7792 5.74923 19 5.99996 19H18C18.2507 19 18.6193 18.7497 18.5351 18.5293L17.4164 15.3664C17.291 15.1471 17.2507 15 17 15H6.99996Z" fill="black"/>
<path d="M8 6C7.51541 6 7 6.51663 7 7V13C7 13.4834 7.51663 14 8 14H16C16.4834 14 17 13.4834 17 13V7C17 6.51661 16.4834 6 16 6H8ZM8 7H16V13H8V7Z" fill="black"/>
</svg>
