<svg width="20" height="20" viewBox="0 0 20 20" fill="none" xmlns="http://www.w3.org/2000/svg">
<circle cx="10" cy="10" r="10" fill="#FC3232"/>
<path d="M13.75 13.1707C15.4978 13.5825 16.75 14.6937 16.75 15.9999" stroke="white" stroke-width="1.5" stroke-linecap="round" stroke-linejoin="round"/>
<path d="M3.25 16C3.25 14.3431 5.26472 13 7.75 13C10.2353 13 12.25 14.3431 12.25 16" stroke="white" stroke-width="1.5" stroke-linecap="round" stroke-linejoin="round"/>
<path d="M12.25 10.75C13.9069 10.75 15.25 9.40685 15.25 7.75C15.25 6.09315 13.9069 4.75 12.25 4.75" stroke="white" stroke-width="1.5" stroke-linecap="round" stroke-linejoin="round"/>
<path d="M7.75 10.75C9.40685 10.75 10.75 9.40685 10.75 7.75C10.75 6.09315 9.40685 4.75 7.75 4.75C6.09315 4.75 4.75 6.09315 4.75 7.75C4.75 9.40685 6.09315 10.75 7.75 10.75Z" stroke="white" stroke-width="1.5" stroke-linecap="round" stroke-linejoin="round"/>
</svg>
