<svg width="20" height="20" viewBox="0 0 20 20" fill="none" xmlns="http://www.w3.org/2000/svg">
<circle cx="10" cy="10" r="10" fill="#CE93D8"/>
<path d="M4.69044 16.4762V13.1428M4.69044 6.47616V3.14282M3.14282 4.80949H6.23806M3.14282 14.8095H6.23806M15.2143 6.47616V3.14282M13.6666 4.80949H16.7619M9.95235 3.80949L9.12093 6.13746C8.85717 6.87598 8.7253 7.24523 8.51401 7.55838C8.32675 7.83593 8.09434 8.08017 7.82644 8.28098C7.52416 8.50755 7.1619 8.6576 6.4374 8.95769L4.38092 9.80949L6.4374 10.6613C7.16191 10.9614 7.52416 11.1114 7.82644 11.338C8.09434 11.5388 8.32675 11.783 8.51401 12.0606C8.7253 12.3737 8.85717 12.743 9.12093 13.4815L9.95235 15.8095L11.0716 13.1978C11.3444 12.5614 11.4808 12.2431 11.6784 11.9711C11.8536 11.7298 12.0638 11.516 12.3021 11.3367C12.5708 11.1345 12.8867 10.9928 13.5184 10.7093L15.5238 9.80949L13.5184 8.90966C12.8867 8.62618 12.5708 8.48444 12.3021 8.28228C12.0638 8.103 11.8536 7.88919 11.6784 7.64791C11.4808 7.37584 11.3444 7.05761 11.0716 6.42115L9.95235 3.80949Z" stroke="white" stroke-width="1.5" stroke-linecap="round" stroke-linejoin="round"/>
</svg>
