<svg width="20" height="20" viewBox="0 0 20 20" fill="none" xmlns="http://www.w3.org/2000/svg">
<circle cx="10" cy="10" r="10" fill="#90CAF9"/>
<path d="M17.1449 13.875L10.6497 2.625C10.3611 2.125 9.63937 2.125 9.3507 2.625L2.85551 13.875C2.56683 14.375 2.92767 15 3.50502 15H16.4954C17.0728 15 17.4336 14.375 17.1449 13.875Z" stroke="white" stroke-width="1.5" stroke-linecap="round" stroke-linejoin="round"/>
<path d="M11.125 12C11.125 12.6213 10.6213 13.125 10 13.125C9.37868 13.125 8.875 12.6213 8.875 12C8.875 11.3787 9.37868 10.875 10 10.875C10.6213 10.875 11.125 11.3787 11.125 12Z" fill="white"/>
<path d="M10 9L10 6.75" stroke="white" stroke-width="1.5" stroke-linecap="round" stroke-linejoin="round"/>
</svg>
