<svg width="24" height="24" viewBox="0 0 24 24" fill="none" xmlns="http://www.w3.org/2000/svg">
<circle cx="12" cy="12" r="12" fill="black"/>
<circle cx="12" cy="12" r="10" fill="white"/>
<path fill-rule="evenodd" clip-rule="evenodd" d="M6 5V15H8.00008V11.5H10.5002C12.4763 11.5 14.0003 10.5 14.0003 8.25C14.0003 6 12.4871 5 10.9689 5H6ZM8.00008 7H10.5002C11.4638 7 12.0002 7.52543 12.0002 8.25C12.0002 8.97457 11.3684 9.5 10.5002 9.5H8.00008V7Z" fill="black"/>
<g clip-path="url(#clip0_2731_8934)">
<path d="M12 16.75C12 16.9489 12.079 17.1397 12.2197 17.2803C12.3603 17.421 12.5511 17.5 12.75 17.5H18.25C18.4489 17.5 18.6397 17.421 18.7803 17.2803C18.921 17.1397 19 16.9489 19 16.75V15.25C19 15.0511 18.921 14.8603 18.7803 14.7197C18.6397 14.579 18.4489 14.5 18.25 14.5H12.75C12.5511 14.5 12.3603 14.579 12.2197 14.7197C12.079 14.8603 12 15.0511 12 15.25V16.75ZM12.8 15.75C12.8007 15.6309 12.8485 15.5169 12.9331 15.433C13.0177 15.3491 13.1321 15.3022 13.2512 15.3025C13.3704 15.3028 13.4845 15.3504 13.5686 15.4347C13.6528 15.5191 13.7 15.6334 13.7 15.7525C13.7 15.8716 13.6528 15.9859 13.5686 16.0703C13.4845 16.1546 13.3704 16.2022 13.2512 16.2025C13.1321 16.2028 13.0177 16.1559 12.9331 16.072C12.8485 15.9881 12.8007 15.8741 12.8 15.755V15.75ZM17.3 15.75C17.3007 15.6309 17.3485 15.5169 17.4331 15.433C17.5177 15.3491 17.6321 15.3022 17.7512 15.3025C17.8704 15.3028 17.9845 15.3504 18.0686 15.4347C18.1528 15.5191 18.2 15.6334 18.2 15.7525C18.2 15.8716 18.1528 15.9859 18.0686 16.0703C17.9845 16.1546 17.8704 16.2022 17.7512 16.2025C17.6321 16.2028 17.5177 16.1559 17.4331 16.072C17.3485 15.9881 17.3007 15.8741 17.3 15.755V15.75Z" fill="black"/>
<path d="M13.5 17H12.5V18.5H13.5V17Z" fill="black"/>
<path d="M18.5 17H17.5V18.5H18.5V17Z" fill="black"/>
<path d="M13 14.5V13.25C13 13.0511 13.079 12.8603 13.2197 12.7197C13.3603 12.579 13.5511 12.5 13.75 12.5H17.25C17.4489 12.5 17.6397 12.579 17.7803 12.7197C17.921 12.8603 18 13.0511 18 13.25V14.5H17.25V13.75C17.25 13.6174 17.1973 13.4902 17.1036 13.3964C17.0098 13.3027 16.8826 13.25 16.75 13.25H14.25C14.1174 13.25 13.9902 13.3027 13.8964 13.3964C13.8027 13.4902 13.75 13.6174 13.75 13.75V14.5H13Z" fill="black"/>
</g>
<defs>
<clipPath id="clip0_2731_8934">
<rect width="7" height="7" fill="white" transform="translate(12 12)"/>
</clipPath>
</defs>
</svg>
