<svg width="24" height="24" viewBox="0 0 24 24" fill="none" xmlns="http://www.w3.org/2000/svg">
<circle cx="12" cy="12" r="12" fill="black"/>
<circle cx="12" cy="12" r="10" fill="white"/>
<g clip-path="url(#clip0_2731_8961)">
<path d="M18.416 5.87643C16.7038 4.16443 13.5718 4.51968 11.4215 6.67068C10.1613 7.93068 9.52254 9.52593 9.54954 10.9769C9.44804 12.5309 9.16954 14.0307 8.43429 14.9002L8.18004 14.6457L7.78779 15.0377L7.89654 15.1464L5.25929 17.7837L5.15054 17.6749L4.75879 18.0667L6.19129 19.4999L6.58354 19.1082L6.47479 18.9997L9.11229 16.3624L9.22104 16.4709L9.61254 16.0792L9.39329 15.8587C10.2623 15.1239 11.76 14.8457 13.3125 14.7434C14.764 14.7717 16.3608 14.1332 17.622 12.8719C19.7738 10.7209 20.1288 7.58893 18.416 5.87643ZM18.7115 8.66918L18.352 8.31018L18.631 8.03168C18.6763 8.23868 18.7028 8.45168 18.7115 8.66918ZM18.5148 7.62668L18.0918 8.04993L17.2983 7.25618L17.9278 6.62643C18.1888 6.92193 18.3838 7.25968 18.5148 7.62668ZM11.2125 11.2317L12.208 10.2357L13.0023 11.0297L12.0063 12.0252L11.2125 11.2317ZM11.7463 12.2867L11.1155 12.9167C10.8543 12.6207 10.659 12.2832 10.5285 11.9157L10.9518 11.4929L11.7463 12.2867ZM14.9868 7.45768L15.9818 6.46218L16.7755 7.25643L15.7798 8.25218L14.9868 7.45768ZM16.5735 9.56717L15.5773 10.5652L14.7825 9.77168L15.7798 8.77393L16.5735 9.56717ZM15.519 8.51293L14.5218 9.51018L13.728 8.71643L14.7253 7.71893L15.519 8.51293ZM14.2608 9.77168L13.2633 10.7689L12.469 9.97468L13.4668 8.97743L14.2608 9.77168ZM13.4668 8.45543L12.675 7.66343L13.6723 6.66593L14.4635 7.45768L13.4668 8.45543ZM13.206 8.71668L12.208 9.71368L11.4165 8.92168L12.4133 7.92393L13.206 8.71668ZM13.2633 11.2912L14.0568 12.0844L13.0613 13.0804L12.268 12.2862L13.2633 11.2912ZM13.525 11.0297L14.5218 10.0324L15.3155 10.8262L14.3175 11.8237L13.525 11.0297ZM15.5773 11.0869L16.3678 11.8792L15.3703 12.8764L14.578 12.0844L15.5773 11.0869ZM15.8375 10.8259L16.8348 9.82868L17.627 10.6204L16.6298 11.6179L15.8375 10.8259ZM16.041 8.51318L17.037 7.51718L17.8305 8.31043L16.8358 9.30643L16.041 8.51318ZM17.667 6.36543L17.037 6.99543L16.2425 6.20118L16.6653 5.77843C17.0333 5.90868 17.371 6.10418 17.667 6.36543ZM16.2605 5.66143L15.982 5.93993L15.6233 5.58118C15.8408 5.59018 16.0538 5.61643 16.2605 5.66143ZM15.1128 5.59268L15.7208 6.20093L14.7255 7.19668L13.933 6.40493L14.6883 5.64968C14.8305 5.62343 14.9723 5.60468 15.1128 5.59268ZM13.9735 5.84243L13.6725 6.14393L13.5443 6.01568C13.6863 5.95068 13.8295 5.89318 13.9735 5.84243ZM13.197 6.19018L13.411 6.40443L12.4133 7.40218L12.043 7.03093C12.4033 6.69268 12.7925 6.41193 13.197 6.19018ZM11.7818 7.29243L12.1528 7.66343L11.1553 8.66068L10.941 8.44618C11.1628 8.04168 11.4435 7.65293 11.7818 7.29243ZM10.7663 8.79367L10.8943 8.92193L10.5928 9.22342C10.6433 9.07893 10.7008 8.93593 10.7663 8.79367ZM10.4 9.93743L11.1553 9.18243L11.9473 9.97443L10.9518 10.9697L10.3428 10.3609C10.355 10.2209 10.3738 10.0794 10.4 9.93743ZM10.6903 11.2314L10.4118 11.5099C10.3663 11.3034 10.3405 11.0899 10.3318 10.8727L10.6903 11.2314ZM9.62179 14.6717C9.34829 14.3982 9.70429 13.3382 9.95079 12.7079C10.1218 13.0577 10.343 13.3827 10.6263 13.6659C10.9098 13.9494 11.235 14.1709 11.5855 14.3422C10.9553 14.5884 9.89479 14.9447 9.62179 14.6717ZM11.3765 13.1779L12.0065 12.5477L12.8003 13.3417L12.3765 13.7644C12.0098 13.6339 11.672 13.4387 11.3765 13.1779ZM12.7823 13.8809L13.061 13.6022L13.42 13.9614C13.2023 13.9527 12.9893 13.9264 12.7823 13.8809ZM13.9308 13.9499L13.3218 13.3409L14.3173 12.3454L15.1098 13.1372L14.3543 13.8932C14.2125 13.9194 14.0713 13.9379 13.9308 13.9499ZM15.0688 13.7004L15.37 13.3992L15.4985 13.5272C15.3563 13.5919 15.213 13.6497 15.0688 13.7004ZM15.8468 13.3517L15.6325 13.1372L16.6298 12.1402L17.0005 12.5109C16.6403 12.8492 16.2513 13.1302 15.8468 13.3517ZM17.2615 12.2499L16.8905 11.8792L17.8878 10.8817L18.1025 11.0959C17.8805 11.5002 17.6 11.8894 17.2615 12.2499ZM18.277 10.7487L18.1488 10.6207L18.45 10.3194C18.3995 10.4634 18.342 10.6067 18.277 10.7487ZM18.643 9.60418L17.8878 10.3597L17.0963 9.56717L18.0918 8.57168L18.7003 9.18068C18.688 9.32118 18.6695 9.46243 18.643 9.60418Z" fill="black"/>
<path d="M7.25 10C7.9845 10 8.67525 9.714 9.19475 9.19475C9.71425 8.67525 10 7.9845 10 7.25C10 6.5155 9.7135 5.82475 9.194 5.3055C8.67475 4.78625 7.98425 4.5 7.24975 4.5C6.51525 4.5 5.825 4.786 5.30575 5.3055C4.78625 5.82475 4.5 6.5155 4.5 7.25C4.5 7.9845 4.786 8.6755 5.3055 9.19475C5.825 9.714 6.5155 10 7.25 10ZM8.87025 5.62975C9.28725 6.04675 9.5215 6.59625 9.5385 7.183C8.9775 7.158 8.4235 6.93225 7.996 6.5045C7.568 6.077 7.34225 5.523 7.3175 4.96175C7.90375 4.97875 8.4535 5.213 8.87025 5.62975ZM5.62975 5.6295C6.012 5.24725 6.5055 5.0175 7.037 4.96875C7.06375 5.59975 7.31575 6.223 7.7965 6.7035C8.27725 7.18425 8.90075 7.43625 9.5315 7.463C9.483 7.99475 9.253 8.48825 8.8705 8.8705C8.4885 9.2525 7.99475 9.4825 7.463 9.53125C7.4365 8.9005 7.184 8.27725 6.7035 7.79675C6.22275 7.316 5.6 7.06375 4.969 7.03725C5.01725 6.50525 5.24725 6.01175 5.62975 5.6295ZM6.50425 7.9955C6.932 8.42325 7.15775 8.97725 7.18275 9.53825C6.596 9.52125 6.0465 9.28725 5.6295 8.8705C5.21275 8.45375 4.9785 7.904 4.96175 7.31725C5.52275 7.34225 6.07675 7.568 6.50425 7.9955Z" fill="black"/>
</g>
<defs>
<clipPath id="clip0_2731_8961">
<rect width="16" height="16" fill="white" transform="translate(4 4)"/>
</clipPath>
</defs>
</svg>
