<svg width="24" height="24" viewBox="0 0 24 24" fill="none" xmlns="http://www.w3.org/2000/svg">
<circle cx="12" cy="12" r="12" fill="black"/>
<circle cx="12" cy="12" r="10" fill="white"/>
<path fill-rule="evenodd" clip-rule="evenodd" d="M6 5V15H8.00008V11.5H10.5002C12.4763 11.5 14.0003 10.5 14.0003 8.25C14.0003 6 12.4871 5 10.9689 5H6ZM8.00008 7H10.5002C11.4638 7 12.0002 7.52543 12.0002 8.25C12.0002 8.97457 11.3684 9.5 10.5002 9.5H8.00008V7Z" fill="black"/>
<path d="M19 18.4465V17.1887C19 16.8365 18.95 16.4843 18.75 16.1321C18.55 15.7799 18.3 15.478 17.95 15.2767C17.6 15.0252 16.85 14.9748 16.5 14.9748L15.7 15.8302L16 16.4843V17.9937L15.5 18.5472L15 17.9937V16.4843L15.35 15.8302L14.5 14.9748C14.1 14.9748 13.35 15.0252 13 15.2767C12.65 15.478 12.45 15.7799 12.25 16.1321C12.05 16.4843 12 16.7862 12 17.1887V18.4465C12 18.4465 13.3 19 15.5 19C17.7 19 19 18.4465 19 18.4465ZM15.5 11C14.55 11 14 11.9057 14.15 12.9119C14.3 13.9182 14.8 14.6226 15.5 14.6226C16.2 14.6226 16.7 13.9182 16.85 12.9119C17 11.8553 16.45 11 15.5 11Z" fill="black"/>
</svg>
