<svg width="24" height="24" viewBox="0 0 24 24" fill="none" xmlns="http://www.w3.org/2000/svg">
<circle cx="12" cy="12" r="12" fill="black"/>
<circle cx="12" cy="12" r="10" fill="white"/>
<path fill-rule="evenodd" clip-rule="evenodd" d="M8.66671 5.33301C8.29852 5.33301 8.00004 5.63149 8.00004 5.99967V8.66634H7.33337C6.22881 8.66634 5.33337 9.56177 5.33337 10.6663V15.333C5.33337 16.0694 5.93033 16.6663 6.66671 16.6663H8.00004V17.9997C8.00004 18.3679 8.29852 18.6663 8.66671 18.6663H15.3334C15.7016 18.6663 16 18.3679 16 17.9997V16.6663H17.3334C18.0698 16.6663 18.6667 16.0694 18.6667 15.333V10.6663C18.6667 9.56177 17.7713 8.66634 16.6667 8.66634H16V5.99967C16 5.63149 15.7016 5.33301 15.3334 5.33301H8.66671ZM15 8.66634V6.33301H9.00004V8.66634H15ZM15 14.9997H9.00004V17.6663H15V14.9997ZM15.8334 12.1663C16.2016 12.1663 16.5 11.8679 16.5 11.4997C16.5 11.1315 16.2016 10.833 15.8334 10.833C15.4652 10.833 15.1667 11.1315 15.1667 11.4997C15.1667 11.8679 15.4652 12.1663 15.8334 12.1663Z" fill="black"/>
</svg>
