<svg width="24" height="24" viewBox="0 0 24 24" fill="none" xmlns="http://www.w3.org/2000/svg">
<circle cx="12" cy="12" r="12" fill="black"/>
<circle cx="12" cy="12" r="10" fill="white"/>
<g clip-path="url(#clip0_2731_8909)">
<path d="M12 19.5C16.1421 19.5 19.5 16.1421 19.5 12C19.5 7.85786 16.1421 4.5 12 4.5C7.85786 4.5 4.5 7.85786 4.5 12C4.5 16.1421 7.85786 19.5 12 19.5Z" stroke="black" stroke-linecap="round" stroke-linejoin="round"/>
<path d="M12 12C12.6529 13.1564 13.6362 14.0915 14.824 14.6854C16.0117 15.2793 17.3498 15.5049 18.6667 15.3333M8.25 13.25C8.93113 14.6393 9.92537 15.8516 11.1545 16.7916C12.3836 17.7315 13.8141 18.3733 15.3333 18.6667" stroke="black" stroke-linecap="round" stroke-linejoin="round"/>
<path d="M12 11.9995C10.6721 11.9867 9.37061 12.3708 8.2624 13.1025C7.15419 13.8342 6.28976 14.8802 5.77992 16.1064M12.7925 8.12695C11.2487 8.02216 9.70169 8.27704 8.27314 8.87153C6.84459 9.46602 5.57348 10.3839 4.55983 11.553" stroke="black" stroke-linecap="round" stroke-linejoin="round"/>
<path d="M12 12.0005C12.6751 10.8569 12.9932 9.53771 12.9136 8.21213C12.8341 6.88654 12.3604 5.61492 11.5534 4.56028M14.9575 14.623C15.8202 13.3385 16.3729 11.8713 16.5724 10.3369C16.7718 8.8025 16.6124 7.24274 16.1068 5.78037" stroke="black" stroke-linecap="round" stroke-linejoin="round"/>
<path d="M12 19.5C16.1421 19.5 19.5 16.1421 19.5 12C19.5 7.85786 16.1421 4.5 12 4.5C7.85786 4.5 4.5 7.85786 4.5 12C4.5 16.1421 7.85786 19.5 12 19.5Z" stroke="black" stroke-linecap="round" stroke-linejoin="round"/>
<path d="M12 12C12.6529 13.1564 13.6362 14.0915 14.824 14.6854C16.0117 15.2793 17.3498 15.5049 18.6667 15.3333M8.25 13.25C8.93113 14.6393 9.92537 15.8516 11.1545 16.7916C12.3836 17.7315 13.8141 18.3733 15.3333 18.6667" stroke="black" stroke-linecap="round" stroke-linejoin="round"/>
<path d="M12 11.9995C10.6721 11.9867 9.37061 12.3708 8.2624 13.1025C7.15419 13.8342 6.28976 14.8802 5.77992 16.1064M12.7925 8.12695C11.2487 8.02216 9.70169 8.27704 8.27314 8.87153C6.84459 9.46602 5.57348 10.3839 4.55983 11.553" stroke="black" stroke-linecap="round" stroke-linejoin="round"/>
<path d="M12 12.0005C12.6751 10.8569 12.9932 9.53771 12.9136 8.21213C12.8341 6.88654 12.3604 5.61492 11.5534 4.56028M14.9575 14.623C15.8202 13.3385 16.3729 11.8713 16.5724 10.3369C16.7718 8.8025 16.6124 7.24274 16.1068 5.78037" stroke="black" stroke-linecap="round" stroke-linejoin="round"/>
</g>
<defs>
<clipPath id="clip0_2731_8909">
<rect width="20" height="20" fill="white" transform="translate(2 2)"/>
</clipPath>
</defs>
</svg>
