<svg width="24" height="24" viewBox="0 0 24 24" fill="none" xmlns="http://www.w3.org/2000/svg">
<circle cx="12" cy="12" r="12" fill="black"/>
<circle cx="12" cy="12" r="10" fill="white"/>
<path d="M16.6307 17.7877H16.4529V18.5C16.4529 18.6973 16.2934 18.8569 16.0961 18.8569H15.2061C15.0087 18.8569 14.8492 18.6973 14.8492 18.5V17.7877H9.15078V18.5C9.15078 18.6973 8.99125 18.8569 8.79393 18.8569H7.9039C7.70658 18.8569 7.54705 18.6973 7.54705 18.5V17.7877H7.36933C6.77877 17.7877 6.30017 17.3091 6.30017 16.7186V6.21173C6.30017 5.62118 6.77877 5.14258 7.36933 5.14258H16.6307C17.2212 5.14258 17.6998 5.62118 17.6998 6.21173V16.72C17.6998 17.3091 17.2212 17.7877 16.6307 17.7877ZM8.97166 15.8285C8.97166 16.0258 9.13119 16.1854 9.32851 16.1854H14.6715C14.8688 16.1854 15.0283 16.0258 15.0283 15.8285V15.1162C15.0283 14.9189 14.8688 14.7594 14.6715 14.7594H9.32851C9.13119 14.7594 8.97166 14.9189 8.97166 15.1162V15.8285ZM8.25935 13.3362H15.5615C15.7588 13.3362 15.9184 13.1766 15.9184 12.9793V10.3064H7.9039V12.9793C7.9039 13.1766 8.06344 13.3362 8.25935 13.3362ZM15.5615 6.92404H8.25935C8.06204 6.92404 7.9025 7.08357 7.9025 7.28089V9.77465H15.9184V7.27949C15.9184 7.08357 15.7588 6.92404 15.5615 6.92404ZM14.6715 9.23867H13.7815C13.6835 9.23867 13.6037 9.1589 13.6037 9.06094V7.63634C13.6037 7.5384 13.6835 7.45861 13.7815 7.45861H14.6715C14.7694 7.45861 14.8492 7.53838 14.8492 7.63634V9.06094C14.8492 9.15889 14.7694 9.23867 14.6715 9.23867ZM12.3568 9.23867H11.4668C11.3689 9.23867 11.2891 9.1589 11.2891 9.06094V7.63634C11.2891 7.5384 11.3689 7.45861 11.4668 7.45861H12.3568C12.4548 7.45861 12.5346 7.53838 12.5346 7.63634V9.06094C12.5346 9.15889 12.4548 9.23867 12.3568 9.23867ZM10.0408 9.23867H9.15078C9.05282 9.23867 8.97306 9.1589 8.97306 9.06094V7.63634C8.97306 7.5384 9.05282 7.45861 9.15078 7.45861H10.0408C10.1388 7.45861 10.2185 7.53838 10.2185 7.63634V9.06094C10.2185 9.15889 10.1388 9.23867 10.0408 9.23867ZM9.15078 11.0201H10.0408C10.1388 11.0201 10.2185 11.0999 10.2185 11.1979V12.6225C10.2185 12.7204 10.1388 12.8002 10.0408 12.8002H9.15078C9.05282 12.8002 8.97306 12.7204 8.97306 12.6225V11.1979C8.97169 11.0999 9.05142 11.0201 9.15078 11.0201ZM11.4654 11.0201H12.3554C12.4534 11.0201 12.5332 11.0999 12.5332 11.1979V12.6225C12.5332 12.7204 12.4534 12.8002 12.3554 12.8002H11.4654C11.3675 12.8002 11.2877 12.7204 11.2877 12.6225V11.1979C11.2877 11.0999 11.3675 11.0201 11.4654 11.0201ZM13.7815 11.0201H14.6715C14.7694 11.0201 14.8492 11.0999 14.8492 11.1979V12.6225C14.8492 12.7204 14.7694 12.8002 14.6715 12.8002H13.7815C13.6835 12.8002 13.6037 12.7204 13.6037 12.6225V11.1979C13.6024 11.0999 13.6821 11.0201 13.7815 11.0201Z" fill="black"/>
</svg>
