<svg width="24" height="24" viewBox="0 0 24 24" fill="none" xmlns="http://www.w3.org/2000/svg">
<circle cx="12" cy="12" r="12" fill="black"/>
<circle cx="12" cy="12" r="10" fill="white"/>
<g clip-path="url(#clip0_2731_8937)">
<path fill-rule="evenodd" clip-rule="evenodd" d="M6.0186 16.9202H15.7735C16.1962 16.4724 16.6872 15.2046 17.1919 13.9006C17.3526 13.4854 17.5144 13.0666 17.6818 12.6607C16.9493 12.663 15.9524 12.5897 15.7997 12.4106C15.6812 12.2722 15.7245 12.0698 15.9034 11.8151L18.0601 9.6655C18.2618 9.47939 18.4372 9.40844 18.5865 9.45497C18.7346 9.50033 18.8576 9.65969 18.9545 9.93536C19.0092 10.7647 19.0035 11.5952 18.8827 12.4246C18.8166 12.4641 18.7483 12.4978 18.6788 12.5281C18.4497 13.0492 18.2219 13.6401 17.9952 14.224C17.6066 15.2278 17.2261 16.2119 16.7966 16.9202H17.9803C18.5409 16.9202 18.9989 17.3878 18.9989 17.9601C18.9989 18.5324 18.5409 19 17.9803 19H6.01746C5.45691 19 4.9989 18.5324 4.9989 17.9601C5.00004 17.389 5.45805 16.9202 6.0186 16.9202ZM9.15059 9.2328L9.11983 9.18046L8.31547 9.29794L8.0238 11.1183C7.96912 11.4591 7.6558 11.6894 7.32198 11.6348C6.98816 11.5789 6.76257 11.2591 6.81612 10.9182L7.1807 8.64423C7.22514 8.3674 7.44047 8.16384 7.69796 8.12662L9.25541 7.89864L10.4073 7.64158C11.0635 7.66368 11.5534 7.94516 11.7745 8.53722C11.8064 8.57793 11.8337 8.62446 11.8553 8.67448L12.4729 10.1157L14.4872 10.2436C14.8244 10.2634 15.0819 10.56 15.0614 10.9043C15.042 11.2486 14.7515 11.5115 14.4143 11.4917L12.0251 11.3405C11.779 11.3254 11.5751 11.1637 11.4908 10.9438L11.3654 10.6519L11.1091 11.7906L12.7998 12.8072C12.9468 12.8945 13.0437 13.0352 13.0824 13.1911H13.0847L13.6988 15.6466C13.7819 15.9816 13.5837 16.3224 13.2556 16.4073C12.9275 16.4922 12.5936 16.2898 12.5105 15.9548L11.9613 13.7459L11.82 13.661L10.0632 12.9782L9.96863 13.0317L9.43201 14.4845C9.39327 14.5892 9.33061 14.6765 9.25199 14.7439L7.23881 16.4689C6.97904 16.6899 6.59395 16.655 6.37634 16.391C6.15987 16.1258 6.19405 15.7326 6.45268 15.5105L8.3075 13.9216C8.44307 12.3164 8.7393 10.7577 9.15059 9.2328ZM11.5979 5C12.2404 5 12.7611 5.53157 12.7611 6.1876C12.7611 6.84364 12.2404 7.37521 11.5979 7.37521C10.9553 7.37521 10.4346 6.84364 10.4346 6.1876C10.4346 5.53157 10.9553 5 11.5979 5Z" fill="black"/>
</g>
<defs>
<clipPath id="clip0_2731_8937">
<rect width="14" height="14" fill="white" transform="translate(5 5)"/>
</clipPath>
</defs>
</svg>
