<svg width="24" height="24" viewBox="0 0 24 24" fill="none" xmlns="http://www.w3.org/2000/svg">
<circle cx="12" cy="12" r="12" fill="black"/>
<circle cx="12" cy="12" r="10" fill="white"/>
<path d="M18 6.66634C18 5.93101 17.402 5.33301 16.6667 5.33301H7.33333C6.598 5.33301 6 5.93101 6 6.66634V17.333C6 18.0683 6.598 18.6663 7.33333 18.6663H16.6667C17.402 18.6663 18 18.0683 18 17.333V6.66634ZM7.33333 6.66634H16.6667V11.333H7.33333V6.66634ZM7.33333 17.333V12.6663H16.6673V17.333H7.33333Z" fill="black"/>
<path d="M13.3334 8.66667H10.6667V8H9.33337V10H14.6667V8H13.3334V8.66667ZM13.3334 14V14.6667H10.6667V14H9.33337V16H14.6667V14H13.3334Z" fill="black"/>
</svg>
