<svg width="24" height="24" viewBox="0 0 24 24" fill="none" xmlns="http://www.w3.org/2000/svg">
<circle cx="12" cy="12" r="12" fill="black"/>
<circle cx="12" cy="12" r="10" fill="white"/>
<g clip-path="url(#clip0_2731_8952)">
<path d="M6 6C5.45763 6 5 6.45763 5 7V9C5 9.55932 5.48862 10 6 10V8H18V10C18.5114 10 19 9.51429 19 9V7C19 6.45763 18.5085 6 18 6H6ZM7 9V17C7 17.5992 7.40076 18 8 18H16C16.5273 18 17 17.5513 17 17V9H16V15C15 15 14 16 14 17H10C10 16 9 15 8 15V9H7ZM12 10C10.4292 10 9 10.9528 9 12C9 13.0472 10.4292 14 12 14C13.5708 14 15 13.0472 15 12C15 10.9528 13.5708 10 12 10ZM7 18.5C7 19.5547 7.42473 20 8 20H16C16.5273 20 17 19.5547 17 18.5C16.6949 18.7712 16.5034 18.9927 16 18.9688L8 19.0312C7.52061 19.0073 7.30508 18.8051 7 18.5Z" fill="black"/>
</g>
<defs>
<clipPath id="clip0_2731_8952">
<rect width="14" height="14" fill="white" transform="translate(5 6)"/>
</clipPath>
</defs>
</svg>
