<svg width="40" height="40" viewBox="0 0 38 38" fill="none" xmlns="http://www.w3.org/2000/svg">
<circle cx="19" cy="19" r="19" fill="#5BC4AF" fill-opacity="1"/>
<circle cx="19" cy="19" r="18.5" stroke="#5BC4AF" stroke-opacity="0.51"/>
<path d="M9.83337 21.2917L18.6721 25.711C18.7923 25.7711 18.8525 25.8012 18.9155 25.813C18.9714 25.8235 19.0287 25.8235 19.0846 25.813C19.1476 25.8012 19.2077 25.7711 19.328 25.711L28.1667 21.2917M9.83337 16.7083L18.6721 12.289C18.7923 12.2288 18.8525 12.1988 18.9155 12.187C18.9714 12.1765 19.0287 12.1765 19.0846 12.187C19.1476 12.1988 19.2077 12.2288 19.328 12.289L28.1667 16.7083L19.328 21.1277C19.2077 21.1878 19.1476 21.2179 19.0846 21.2297C19.0287 21.2402 18.9714 21.2402 18.9155 21.2297C18.8525 21.2179 18.7923 21.1878 18.6721 21.1277L9.83337 16.7083Z" stroke="white" stroke-width="2" stroke-linecap="round" stroke-linejoin="round"/>
</svg>
