<svg width="20" height="21" viewBox="0 0 20 21" fill="none" xmlns="http://www.w3.org/2000/svg">
<path d="M17.5 15.0369C17.5 15.3807 17.3563 15.7104 17.1006 15.9535C16.8449 16.1966 16.498 16.3332 16.1364 16.3332H3.86364C3.50198 16.3332 3.15513 16.1966 2.8994 15.9535C2.64367 15.7104 2.5 15.3807 2.5 15.0369V7.90724C2.5 7.56345 2.64367 7.23373 2.8994 6.99062C3.15513 6.74752 3.50198 6.61095 3.86364 6.61095H6.59091L7.95455 4.6665H12.0455L13.4091 6.61095H16.1364C16.498 6.61095 16.8449 6.74752 17.1006 6.99062C17.3563 7.23373 17.5 7.56345 17.5 7.90724V15.0369Z" stroke="#FDCC4F" stroke-width="2" stroke-linecap="round" stroke-linejoin="round"/>
<path d="M10 13.8335C11.3807 13.8335 12.5 12.7142 12.5 11.3335C12.5 9.95278 11.3807 8.8335 10 8.8335C8.61929 8.8335 7.5 9.95278 7.5 11.3335C7.5 12.7142 8.61929 13.8335 10 13.8335Z" stroke="#FDCC4F" stroke-width="2" stroke-linecap="round" stroke-linejoin="round"/>
</svg>
