<svg width="19" height="19" viewBox="0 0 19 19" fill="none" xmlns="http://www.w3.org/2000/svg">
<path d="M2.375 4.375C2.375 3.27043 3.27043 2.375 4.375 2.375H14.625C15.7296 2.375 16.625 3.27043 16.625 4.375V14.625C16.625 15.7296 15.7296 16.625 14.625 16.625H4.375C3.27043 16.625 2.375 15.7296 2.375 14.625V4.375Z" stroke="black" stroke-width="2" stroke-linecap="round" stroke-linejoin="round"/>
<path d="M10.6875 12.667C10.6875 13.3228 10.1558 13.8545 9.5 13.8545C8.84416 13.8545 8.3125 13.3228 8.3125 12.667C8.3125 12.0112 8.84416 11.4795 9.5 11.4795C10.1558 11.4795 10.6875 12.0112 10.6875 12.667Z" fill="black"/>
<path d="M8.38041 6.26509C8.68887 5.95664 9.09293 5.80206 9.49721 5.80135C9.90335 5.80064 10.3097 5.95522 10.6196 6.26509C10.9288 6.57426 11.0833 6.97947 11.0833 7.38468C11.0833 7.78989 10.9288 8.1951 10.6196 8.50426C10.3097 8.81414 9.90335 8.96872 9.49721 8.96801L9.5 9.75968" stroke="black" stroke-width="2" stroke-linecap="round" stroke-linejoin="round"/>
</svg>
