<svg width="32" height="38" viewBox="0 0 32 38" fill="none" xmlns="http://www.w3.org/2000/svg">
<g filter="url(#filter0_d_2691_13904)">
<path d="M16 32C22 28 28 20.6274 28 14C28 7.37258 22.6274 2 16 2C9.37258 2 4 7.37258 4 14C4 20.6274 10 28 16 32Z" fill="black"/>
</g>
<circle cx="16" cy="14" r="10" fill="white"/>
<g clip-path="url(#clip0_2691_13904)">
<path fill-rule="evenodd" clip-rule="evenodd" d="M16 6C13.8783 6 11.8434 6.84285 10.3431 8.34315C8.84285 9.84344 8 11.8783 8 14C8 16.1217 8.84285 18.1566 10.3431 19.6569C11.8434 21.1571 13.8783 22 16 22C18.1217 22 20.1566 21.1571 21.6569 19.6569C23.1571 18.1566 24 16.1217 24 14C24 11.8783 23.1571 9.84344 21.6569 8.34315C20.1566 6.84285 18.1217 6 16 6ZM16 7.71429C16.8255 7.71429 17.6428 7.87687 18.4054 8.19276C19.1681 8.50864 19.861 8.97165 20.4447 9.55533C21.0284 10.139 21.4914 10.8319 21.8072 11.5946C22.1231 12.3572 22.2857 13.1745 22.2857 14C22.2857 14.8255 22.1231 15.6428 21.8072 16.4054C21.4914 17.1681 21.0284 17.861 20.4447 18.4447C19.861 19.0284 19.1681 19.4914 18.4054 19.8072C17.6428 20.1231 16.8255 20.2857 16 20.2857C14.3329 20.2857 12.7341 19.6235 11.5553 18.4447C10.3765 17.2659 9.71429 15.6671 9.71429 14C9.71429 12.3329 10.3765 10.7341 11.5553 9.55533C12.7341 8.37653 14.3329 7.71429 16 7.71429ZM16 9.27902C15.8439 9.27916 15.6894 9.31004 15.5452 9.3699C15.4011 9.42977 15.2701 9.51745 15.1598 9.62792C15.0496 9.7384 14.9621 9.86952 14.9025 10.0138C14.8429 10.1581 14.8123 10.3127 14.8125 10.4688C14.8128 10.7836 14.938 11.0855 15.1606 11.3081C15.3833 11.5308 15.6851 11.656 16 11.6563C16.3149 11.656 16.6167 11.5308 16.8394 11.3081C17.062 11.0855 17.1872 10.7836 17.1875 10.4688C17.1877 10.3127 17.1571 10.1581 17.0975 10.0138C17.0379 9.86952 16.9504 9.7384 16.8402 9.62792C16.7299 9.51745 16.5989 9.42977 16.4548 9.3699C16.3106 9.31004 16.1561 9.27916 16 9.27902ZM16.7857 12.4397L14.4308 13.2254V14.0089H15.154L15.2143 17.9353H14.4308V18.721H17.5692V17.9353H16.7857V12.4397Z" fill="black"/>
</g>
<defs>
<filter id="filter0_d_2691_13904" x="0" y="0" width="32" height="38" filterUnits="userSpaceOnUse" color-interpolation-filters="sRGB">
<feFlood flood-opacity="0" result="BackgroundImageFix"/>
<feColorMatrix in="SourceAlpha" type="matrix" values="0 0 0 0 0 0 0 0 0 0 0 0 0 0 0 0 0 0 127 0" result="hardAlpha"/>
<feOffset dy="2"/>
<feGaussianBlur stdDeviation="2"/>
<feComposite in2="hardAlpha" operator="out"/>
<feColorMatrix type="matrix" values="0 0 0 0 0 0 0 0 0 0 0 0 0 0 0 0 0 0 0.12 0"/>
<feBlend mode="normal" in2="BackgroundImageFix" result="effect1_dropShadow_2691_13904"/>
<feBlend mode="normal" in="SourceGraphic" in2="effect1_dropShadow_2691_13904" result="shape"/>
</filter>
<clipPath id="clip0_2691_13904">
<rect width="16" height="16" fill="white" transform="translate(8 6)"/>
</clipPath>
</defs>
</svg>
