<svg width="32" height="38" viewBox="0 0 32 38" fill="none" xmlns="http://www.w3.org/2000/svg">
<g filter="url(#filter0_d_2691_13843)">
<path d="M16 32C22 28 28 20.6274 28 14C28 7.37258 22.6274 2 16 2C9.37258 2 4 7.37258 4 14C4 20.6274 10 28 16 32Z" fill="black"/>
</g>
<circle cx="16" cy="14" r="10" fill="white"/>
<path fill-rule="evenodd" clip-rule="evenodd" d="M10 8V18H12.0001V14.5H14.5002C16.4763 14.5 18.0003 13.5 18.0003 11.25C18.0003 9 16.4871 8 14.9689 8H10ZM12.0001 10H14.5002C15.4638 10 16.0002 10.5254 16.0002 11.25C16.0002 11.9746 15.3684 12.5 14.5002 12.5H12.0001V10Z" fill="black"/>
<g clip-path="url(#clip0_2691_13843)">
<path d="M19.1638 14.7685C19.1638 15.1934 18.8197 15.538 18.3948 15.538C17.9698 15.538 17.6253 15.1934 17.6253 14.7685C17.6253 14.3436 17.9698 14 18.3948 14C18.8197 14 19.1638 14.3441 19.1638 14.7685ZM18.4131 21.0071C17.3935 21.0071 16.5645 20.1781 16.5645 19.1591C16.5645 18.4721 16.9456 17.878 17.5025 17.5602V17.0021C16.6625 17.3577 16.0714 18.1906 16.0714 19.1586C16.0714 20.4491 17.1214 21.5 18.4128 21.5C19.2699 21.5 20.0134 21.0305 20.4207 20.341L20.1678 19.7075C19.9323 20.458 19.2402 21.0071 18.4131 21.0071ZM21.8466 19.8826H21.2912C21.2912 19.8826 20.9546 18.923 20.8606 18.668C20.7997 18.4995 20.6422 18.377 20.4526 18.377H19.1031V17.4334H20.383C20.5524 17.4334 20.69 17.297 20.69 17.1268C20.69 16.9566 20.5524 16.8184 20.383 16.8184H19.1031C19.1031 16.8184 19.0295 15.6995 18.3941 15.6995C17.9591 15.6995 17.81 16.0524 17.81 16.4874V18.463C17.81 18.8984 18.1634 19.2519 18.598 19.2519C18.6109 19.2519 18.6219 19.2448 18.6345 19.2448C18.6465 19.2453 18.658 19.2519 18.6711 19.2519H20.3166L20.8641 20.6199H21.8462C22.0491 20.6199 22.2146 20.4545 22.2146 20.251C22.2151 20.0471 22.0496 19.8826 21.8466 19.8826Z" fill="black"/>
</g>
<defs>
<filter id="filter0_d_2691_13843" x="0" y="0" width="32" height="38" filterUnits="userSpaceOnUse" color-interpolation-filters="sRGB">
<feFlood flood-opacity="0" result="BackgroundImageFix"/>
<feColorMatrix in="SourceAlpha" type="matrix" values="0 0 0 0 0 0 0 0 0 0 0 0 0 0 0 0 0 0 127 0" result="hardAlpha"/>
<feOffset dy="2"/>
<feGaussianBlur stdDeviation="2"/>
<feComposite in2="hardAlpha" operator="out"/>
<feColorMatrix type="matrix" values="0 0 0 0 0 0 0 0 0 0 0 0 0 0 0 0 0 0 0.12 0"/>
<feBlend mode="normal" in2="BackgroundImageFix" result="effect1_dropShadow_2691_13843"/>
<feBlend mode="normal" in="SourceGraphic" in2="effect1_dropShadow_2691_13843" result="shape"/>
</filter>
<clipPath id="clip0_2691_13843">
<rect width="7.5" height="7.5" fill="white" transform="translate(15 14)"/>
</clipPath>
</defs>
</svg>
