<svg width="32" height="38" viewBox="0 0 32 38" fill="none" xmlns="http://www.w3.org/2000/svg">
<g filter="url(#filter0_d_2691_13799)">
<path d="M16 32C22 28 28 20.6274 28 14C28 7.37258 22.6274 2 16 2C9.37258 2 4 7.37258 4 14C4 20.6274 10 28 16 32Z" fill="black"/>
</g>
<circle cx="16" cy="14" r="10" fill="white"/>
<path d="M22 8.66634C22 7.93101 21.402 7.33301 20.6667 7.33301H11.3333C10.598 7.33301 10 7.93101 10 8.66634V19.333C10 20.0683 10.598 20.6663 11.3333 20.6663H20.6667C21.402 20.6663 22 20.0683 22 19.333V8.66634ZM11.3333 8.66634H20.6667V13.333H11.3333V8.66634ZM11.3333 19.333V14.6663H20.6673V19.333H11.3333Z" fill="black"/>
<path d="M17.3334 10.6667H14.6667V10H13.3334V12H18.6667V10H17.3334V10.6667ZM17.3334 16V16.6667H14.6667V16H13.3334V18H18.6667V16H17.3334Z" fill="black"/>
<defs>
<filter id="filter0_d_2691_13799" x="0" y="0" width="32" height="38" filterUnits="userSpaceOnUse" color-interpolation-filters="sRGB">
<feFlood flood-opacity="0" result="BackgroundImageFix"/>
<feColorMatrix in="SourceAlpha" type="matrix" values="0 0 0 0 0 0 0 0 0 0 0 0 0 0 0 0 0 0 127 0" result="hardAlpha"/>
<feOffset dy="2"/>
<feGaussianBlur stdDeviation="2"/>
<feComposite in2="hardAlpha" operator="out"/>
<feColorMatrix type="matrix" values="0 0 0 0 0 0 0 0 0 0 0 0 0 0 0 0 0 0 0.12 0"/>
<feBlend mode="normal" in2="BackgroundImageFix" result="effect1_dropShadow_2691_13799"/>
<feBlend mode="normal" in="SourceGraphic" in2="effect1_dropShadow_2691_13799" result="shape"/>
</filter>
</defs>
</svg>
