<svg width="32" height="38" viewBox="0 0 32 38" fill="none" xmlns="http://www.w3.org/2000/svg">
<g filter="url(#filter0_d_2691_13865)">
<path d="M16 32C22 28 28 20.6274 28 14C28 7.37258 22.6274 2 16 2C9.37258 2 4 7.37258 4 14C4 20.6274 10 28 16 32Z" fill="black"/>
</g>
<circle cx="16" cy="14" r="10" fill="white"/>
<g clip-path="url(#clip0_2691_13865)">
<path fill-rule="evenodd" clip-rule="evenodd" d="M10.0186 17.9202H19.7735C20.1962 17.4724 20.6872 16.2046 21.1919 14.9006C21.3526 14.4854 21.5144 14.0666 21.6818 13.6607C20.9493 13.663 19.9524 13.5897 19.7997 13.4106C19.6812 13.2722 19.7245 13.0698 19.9034 12.8151L22.0601 10.6655C22.2618 10.4794 22.4372 10.4084 22.5865 10.455C22.7346 10.5003 22.8576 10.6597 22.9545 10.9354C23.0092 11.7647 23.0035 12.5952 22.8827 13.4246C22.8166 13.4641 22.7483 13.4978 22.6788 13.5281C22.4497 14.0492 22.2219 14.6401 21.9952 15.224C21.6066 16.2278 21.2261 17.2119 20.7966 17.9202H21.9803C22.5409 17.9202 22.9989 18.3878 22.9989 18.9601C22.9989 19.5324 22.5409 20 21.9803 20H10.0175C9.45691 20 8.9989 19.5324 8.9989 18.9601C9.00004 18.389 9.45805 17.9202 10.0186 17.9202ZM13.1506 10.2328L13.1198 10.1805L12.3155 10.2979L12.0238 12.1183C11.9691 12.4591 11.6558 12.6894 11.322 12.6348C10.9882 12.5789 10.7626 12.2591 10.8161 11.9182L11.1807 9.64423C11.2251 9.3674 11.4405 9.16384 11.698 9.12662L13.2554 8.89864L14.4073 8.64158C15.0635 8.66368 15.5534 8.94516 15.7745 9.53722C15.8064 9.57793 15.8337 9.62446 15.8553 9.67448L16.4729 11.1157L18.4872 11.2436C18.8244 11.2634 19.0819 11.56 19.0614 11.9043C19.042 12.2486 18.7515 12.5115 18.4143 12.4917L16.0251 12.3405C15.779 12.3254 15.5751 12.1637 15.4908 11.9438L15.3654 11.6519L15.1091 12.7906L16.7998 13.8072C16.9468 13.8945 17.0437 14.0352 17.0824 14.1911H17.0847L17.6988 16.6466C17.7819 16.9816 17.5837 17.3224 17.2556 17.4073C16.9275 17.4922 16.5936 17.2898 16.5105 16.9548L15.9613 14.7459L15.82 14.661L14.0632 13.9782L13.9686 14.0317L13.432 15.4845C13.3933 15.5892 13.3306 15.6765 13.252 15.7439L11.2388 17.4689C10.979 17.6899 10.594 17.655 10.3763 17.391C10.1599 17.1258 10.1941 16.7326 10.4527 16.5105L12.3075 14.9216C12.4431 13.3164 12.7393 11.7577 13.1506 10.2328ZM15.5979 6C16.2404 6 16.7611 6.53157 16.7611 7.1876C16.7611 7.84364 16.2404 8.37521 15.5979 8.37521C14.9553 8.37521 14.4346 7.84364 14.4346 7.1876C14.4346 6.53157 14.9553 6 15.5979 6Z" fill="black"/>
</g>
<defs>
<filter id="filter0_d_2691_13865" x="0" y="0" width="32" height="38" filterUnits="userSpaceOnUse" color-interpolation-filters="sRGB">
<feFlood flood-opacity="0" result="BackgroundImageFix"/>
<feColorMatrix in="SourceAlpha" type="matrix" values="0 0 0 0 0 0 0 0 0 0 0 0 0 0 0 0 0 0 127 0" result="hardAlpha"/>
<feOffset dy="2"/>
<feGaussianBlur stdDeviation="2"/>
<feComposite in2="hardAlpha" operator="out"/>
<feColorMatrix type="matrix" values="0 0 0 0 0 0 0 0 0 0 0 0 0 0 0 0 0 0 0.12 0"/>
<feBlend mode="normal" in2="BackgroundImageFix" result="effect1_dropShadow_2691_13865"/>
<feBlend mode="normal" in="SourceGraphic" in2="effect1_dropShadow_2691_13865" result="shape"/>
</filter>
<clipPath id="clip0_2691_13865">
<rect width="14" height="14" fill="white" transform="translate(9 6)"/>
</clipPath>
</defs>
</svg>
