<svg width="32" height="38" viewBox="0 0 32 38" fill="none" xmlns="http://www.w3.org/2000/svg">
<g filter="url(#filter0_d_3060_8940)">
<path d="M16 32C22 28 28 20.6274 28 14C28 7.37258 22.6274 2 16 2C9.37258 2 4 7.37258 4 14C4 20.6274 10 28 16 32Z" fill="#4BA7F2"/>
</g>
<circle cx="16" cy="14" r="10" fill="white"/>
<path fill-rule="evenodd" clip-rule="evenodd" d="M10 7V17H12.0001V13.5H14.5002C16.4763 13.5 18.0003 12.5 18.0003 10.25C18.0003 8 16.4871 7 14.9689 7H10ZM12.0001 9H14.5002C15.4638 9 16.0002 9.52543 16.0002 10.25C16.0002 10.9746 15.3684 11.5 14.5002 11.5H12.0001V9Z" fill="#4BA7F2"/>
<g clip-path="url(#clip0_3060_8940)">
<path d="M16 18.75C16 18.9489 16.079 19.1397 16.2197 19.2803C16.3603 19.421 16.5511 19.5 16.75 19.5H22.25C22.4489 19.5 22.6397 19.421 22.7803 19.2803C22.921 19.1397 23 18.9489 23 18.75V17.25C23 17.0511 22.921 16.8603 22.7803 16.7197C22.6397 16.579 22.4489 16.5 22.25 16.5H16.75C16.5511 16.5 16.3603 16.579 16.2197 16.7197C16.079 16.8603 16 17.0511 16 17.25V18.75ZM16.8 17.75C16.8007 17.6309 16.8485 17.5169 16.9331 17.433C17.0177 17.3491 17.1321 17.3022 17.2512 17.3025C17.3704 17.3028 17.4845 17.3504 17.5686 17.4347C17.6528 17.5191 17.7 17.6334 17.7 17.7525C17.7 17.8716 17.6528 17.9859 17.5686 18.0703C17.4845 18.1546 17.3704 18.2022 17.2512 18.2025C17.1321 18.2028 17.0177 18.1559 16.9331 18.072C16.8485 17.9881 16.8007 17.8741 16.8 17.755V17.75ZM21.3 17.75C21.3007 17.6309 21.3485 17.5169 21.4331 17.433C21.5177 17.3491 21.6321 17.3022 21.7512 17.3025C21.8704 17.3028 21.9845 17.3504 22.0686 17.4347C22.1528 17.5191 22.2 17.6334 22.2 17.7525C22.2 17.8716 22.1528 17.9859 22.0686 18.0703C21.9845 18.1546 21.8704 18.2022 21.7512 18.2025C21.6321 18.2028 21.5177 18.1559 21.4331 18.072C21.3485 17.9881 21.3007 17.8741 21.3 17.755V17.75Z" fill="#4BA7F2"/>
<path d="M17.5 19H16.5V20.5H17.5V19Z" fill="#4BA7F2"/>
<path d="M22.5 19H21.5V20.5H22.5V19Z" fill="#4BA7F2"/>
<path d="M17 16.5V15.25C17 15.0511 17.079 14.8603 17.2197 14.7197C17.3603 14.579 17.5511 14.5 17.75 14.5H21.25C21.4489 14.5 21.6397 14.579 21.7803 14.7197C21.921 14.8603 22 15.0511 22 15.25V16.5H21.25V15.75C21.25 15.6174 21.1973 15.4902 21.1036 15.3964C21.0098 15.3027 20.8826 15.25 20.75 15.25H18.25C18.1174 15.25 17.9902 15.3027 17.8964 15.3964C17.8027 15.4902 17.75 15.6174 17.75 15.75V16.5H17Z" fill="#4BA7F2"/>
</g>
<defs>
<filter id="filter0_d_3060_8940" x="0" y="0" width="32" height="38" filterUnits="userSpaceOnUse" color-interpolation-filters="sRGB">
<feFlood flood-opacity="0" result="BackgroundImageFix"/>
<feColorMatrix in="SourceAlpha" type="matrix" values="0 0 0 0 0 0 0 0 0 0 0 0 0 0 0 0 0 0 127 0" result="hardAlpha"/>
<feOffset dy="2"/>
<feGaussianBlur stdDeviation="2"/>
<feComposite in2="hardAlpha" operator="out"/>
<feColorMatrix type="matrix" values="0 0 0 0 0 0 0 0 0 0 0 0 0 0 0 0 0 0 0.12 0"/>
<feBlend mode="normal" in2="BackgroundImageFix" result="effect1_dropShadow_3060_8940"/>
<feBlend mode="normal" in="SourceGraphic" in2="effect1_dropShadow_3060_8940" result="shape"/>
</filter>
<clipPath id="clip0_3060_8940">
<rect width="7" height="7" fill="white" transform="translate(16 14)"/>
</clipPath>
</defs>
</svg>
