<svg width="32" height="38" viewBox="0 0 32 38" fill="none" xmlns="http://www.w3.org/2000/svg">
<g filter="url(#filter0_d_3060_8928)">
<path d="M16 32C22 28 28 20.6274 28 14C28 7.37258 22.6274 2 16 2C9.37258 2 4 7.37258 4 14C4 20.6274 10 28 16 32Z" fill="#4BA7F2"/>
</g>
<circle cx="16" cy="14" r="10" fill="white"/>
<path d="M20.6307 19.7877H20.4529V20.5C20.4529 20.6973 20.2934 20.8569 20.0961 20.8569H19.2061C19.0087 20.8569 18.8492 20.6973 18.8492 20.5V19.7877H13.1508V20.5C13.1508 20.6973 12.9912 20.8569 12.7939 20.8569H11.9039C11.7066 20.8569 11.5471 20.6973 11.5471 20.5V19.7877H11.3693C10.7788 19.7877 10.3002 19.3091 10.3002 18.7186V8.21173C10.3002 7.62118 10.7788 7.14258 11.3693 7.14258H20.6307C21.2212 7.14258 21.6998 7.62118 21.6998 8.21173V18.7199C21.6998 19.3091 21.2212 19.7877 20.6307 19.7877ZM12.9717 17.8285C12.9717 18.0258 13.1312 18.1854 13.3285 18.1854H18.6715C18.8688 18.1854 19.0283 18.0258 19.0283 17.8285V17.1162C19.0283 16.9189 18.8688 16.7594 18.6715 16.7594H13.3285C13.1312 16.7594 12.9717 16.9189 12.9717 17.1162V17.8285ZM12.2594 15.3362H19.5615C19.7588 15.3362 19.9184 15.1766 19.9184 14.9793V12.3064H11.9039V14.9793C11.9039 15.1766 12.0634 15.3362 12.2594 15.3362ZM19.5615 8.92404H12.2594C12.062 8.92404 11.9025 9.08357 11.9025 9.28089V11.7746H19.9184V9.27949C19.9184 9.08357 19.7588 8.92404 19.5615 8.92404ZM18.6715 11.2387H17.7815C17.6835 11.2387 17.6037 11.1589 17.6037 11.0609V9.63634C17.6037 9.5384 17.6835 9.45861 17.7815 9.45861H18.6715C18.7694 9.45861 18.8492 9.53838 18.8492 9.63634V11.0609C18.8492 11.1589 18.7694 11.2387 18.6715 11.2387ZM16.3568 11.2387H15.4668C15.3689 11.2387 15.2891 11.1589 15.2891 11.0609V9.63634C15.2891 9.5384 15.3689 9.45861 15.4668 9.45861H16.3568C16.4548 9.45861 16.5346 9.53838 16.5346 9.63634V11.0609C16.5346 11.1589 16.4548 11.2387 16.3568 11.2387ZM14.0408 11.2387H13.1508C13.0528 11.2387 12.9731 11.1589 12.9731 11.0609V9.63634C12.9731 9.5384 13.0528 9.45861 13.1508 9.45861H14.0408C14.1388 9.45861 14.2185 9.53838 14.2185 9.63634V11.0609C14.2185 11.1589 14.1388 11.2387 14.0408 11.2387ZM13.1508 13.0201H14.0408C14.1388 13.0201 14.2185 13.0999 14.2185 13.1979V14.6225C14.2185 14.7204 14.1388 14.8002 14.0408 14.8002H13.1508C13.0528 14.8002 12.9731 14.7204 12.9731 14.6225V13.1979C12.9717 13.0999 13.0514 13.0201 13.1508 13.0201ZM15.4654 13.0201H16.3554C16.4534 13.0201 16.5332 13.0999 16.5332 13.1979V14.6225C16.5332 14.7204 16.4534 14.8002 16.3554 14.8002H15.4654C15.3675 14.8002 15.2877 14.7204 15.2877 14.6225V13.1979C15.2877 13.0999 15.3675 13.0201 15.4654 13.0201ZM17.7815 13.0201H18.6715C18.7694 13.0201 18.8492 13.0999 18.8492 13.1979V14.6225C18.8492 14.7204 18.7694 14.8002 18.6715 14.8002H17.7815C17.6835 14.8002 17.6037 14.7204 17.6037 14.6225V13.1979C17.6024 13.0999 17.6821 13.0201 17.7815 13.0201Z" fill="#4BA7F2"/>
<defs>
<filter id="filter0_d_3060_8928" x="0" y="0" width="32" height="38" filterUnits="userSpaceOnUse" color-interpolation-filters="sRGB">
<feFlood flood-opacity="0" result="BackgroundImageFix"/>
<feColorMatrix in="SourceAlpha" type="matrix" values="0 0 0 0 0 0 0 0 0 0 0 0 0 0 0 0 0 0 127 0" result="hardAlpha"/>
<feOffset dy="2"/>
<feGaussianBlur stdDeviation="2"/>
<feComposite in2="hardAlpha" operator="out"/>
<feColorMatrix type="matrix" values="0 0 0 0 0 0 0 0 0 0 0 0 0 0 0 0 0 0 0.12 0"/>
<feBlend mode="normal" in2="BackgroundImageFix" result="effect1_dropShadow_3060_8928"/>
<feBlend mode="normal" in="SourceGraphic" in2="effect1_dropShadow_3060_8928" result="shape"/>
</filter>
</defs>
</svg>
