<svg width="32" height="38" viewBox="0 0 32 38" fill="none" xmlns="http://www.w3.org/2000/svg">
<g filter="url(#filter0_d_2691_13884)">
<path d="M16 32C22 28 28 20.6274 28 14C28 7.37258 22.6274 2 16 2C9.37258 2 4 7.37258 4 14C4 20.6274 10 28 16 32Z" fill="black"/>
</g>
<circle cx="16" cy="14" r="10" fill="white"/>
<path d="M9.14282 12.8571L10.8571 22H16.5714L18.2857 12.8571H9.14282ZM10.4914 14H16.9257L16.5028 16.2857H10.9143M12.5714 11.7143C12.5714 9.42857 13.7143 8.28571 16 8.28571H17.1428V7.14286H16C14.8571 7.14286 14.8571 6 16 6H19.4285C20.5714 6 20.5714 7.14286 19.4285 7.14286H18.2857V8.28571H22.8571V10H16C14.7603 9.98984 14.2857 10.5514 14.2857 11.7143H12.5714Z" fill="black"/>
<defs>
<filter id="filter0_d_2691_13884" x="0" y="0" width="32" height="38" filterUnits="userSpaceOnUse" color-interpolation-filters="sRGB">
<feFlood flood-opacity="0" result="BackgroundImageFix"/>
<feColorMatrix in="SourceAlpha" type="matrix" values="0 0 0 0 0 0 0 0 0 0 0 0 0 0 0 0 0 0 127 0" result="hardAlpha"/>
<feOffset dy="2"/>
<feGaussianBlur stdDeviation="2"/>
<feComposite in2="hardAlpha" operator="out"/>
<feColorMatrix type="matrix" values="0 0 0 0 0 0 0 0 0 0 0 0 0 0 0 0 0 0 0.12 0"/>
<feBlend mode="normal" in2="BackgroundImageFix" result="effect1_dropShadow_2691_13884"/>
<feBlend mode="normal" in="SourceGraphic" in2="effect1_dropShadow_2691_13884" result="shape"/>
</filter>
</defs>
</svg>
