<svg width="32" height="38" viewBox="0 0 32 38" fill="none" xmlns="http://www.w3.org/2000/svg">
<g filter="url(#filter0_d_2691_13877)">
<path d="M16 32C22 28 28 20.6274 28 14C28 7.37258 22.6274 2 16 2C9.37258 2 4 7.37258 4 14C4 20.6274 10 28 16 32Z" fill="black"/>
</g>
<circle cx="16" cy="14" r="10" fill="white"/>
<path fill-rule="evenodd" clip-rule="evenodd" d="M12.6667 7.33301C12.2985 7.33301 12 7.63149 12 7.99967V10.6663H11.3334C10.2288 10.6663 9.33337 11.5618 9.33337 12.6663V17.333C9.33337 18.0694 9.93033 18.6663 10.6667 18.6663H12V19.9997C12 20.3679 12.2985 20.6663 12.6667 20.6663H19.3334C19.7016 20.6663 20 20.3679 20 19.9997V18.6663H21.3334C22.0698 18.6663 22.6667 18.0694 22.6667 17.333V12.6663C22.6667 11.5618 21.7713 10.6663 20.6667 10.6663H20V7.99967C20 7.63149 19.7016 7.33301 19.3334 7.33301H12.6667ZM19 10.6663V8.33301H13V10.6663H19ZM19 16.9997H13V19.6663H19V16.9997ZM19.8334 14.1663C20.2016 14.1663 20.5 13.8679 20.5 13.4997C20.5 13.1315 20.2016 12.833 19.8334 12.833C19.4652 12.833 19.1667 13.1315 19.1667 13.4997C19.1667 13.8679 19.4652 14.1663 19.8334 14.1663Z" fill="black"/>
<defs>
<filter id="filter0_d_2691_13877" x="0" y="0" width="32" height="38" filterUnits="userSpaceOnUse" color-interpolation-filters="sRGB">
<feFlood flood-opacity="0" result="BackgroundImageFix"/>
<feColorMatrix in="SourceAlpha" type="matrix" values="0 0 0 0 0 0 0 0 0 0 0 0 0 0 0 0 0 0 127 0" result="hardAlpha"/>
<feOffset dy="2"/>
<feGaussianBlur stdDeviation="2"/>
<feComposite in2="hardAlpha" operator="out"/>
<feColorMatrix type="matrix" values="0 0 0 0 0 0 0 0 0 0 0 0 0 0 0 0 0 0 0.12 0"/>
<feBlend mode="normal" in2="BackgroundImageFix" result="effect1_dropShadow_2691_13877"/>
<feBlend mode="normal" in="SourceGraphic" in2="effect1_dropShadow_2691_13877" result="shape"/>
</filter>
</defs>
</svg>
