<svg width="32" height="38" viewBox="0 0 32 38" fill="none" xmlns="http://www.w3.org/2000/svg">
<g filter="url(#filter0_d_2691_14159)">
<path d="M16 32C22 28 28 20.6274 28 14C28 7.37258 22.6274 2 16 2C9.37258 2 4 7.37258 4 14C4 20.6274 10 28 16 32Z" fill="#FFD771"/>
</g>
<circle cx="16" cy="14" r="10" fill="#FFD771"/>
<g clip-path="url(#clip0_2691_14159)">
<path d="M23.416 8.87643C21.7037 7.16443 18.5717 7.51968 16.4215 9.67068C15.1612 10.9307 14.5225 12.5259 14.5495 13.9769C14.448 15.5309 14.1695 17.0307 13.4342 17.9002L13.18 17.6457L12.7877 18.0377L12.8965 18.1464L10.2592 20.7837L10.1505 20.6749L9.75873 21.0667L11.1912 22.4999L11.5835 22.1082L11.4747 21.9997L14.1122 19.3624L14.221 19.4709L14.6125 19.0792L14.3932 18.8587C15.2622 18.1239 16.76 17.8457 18.3125 17.7434C19.764 17.7717 21.3607 17.1332 22.622 15.8719C24.7737 13.7209 25.1287 10.5889 23.416 8.87643ZM23.7115 11.6692L23.352 11.3102L23.631 11.0317C23.6762 11.2387 23.7027 11.4517 23.7115 11.6692ZM23.5147 10.6267L23.0917 11.0499L22.2982 10.2562L22.9277 9.62643C23.1887 9.92193 23.3837 10.2597 23.5147 10.6267ZM16.2125 14.2317L17.208 13.2357L18.0022 14.0297L17.0062 15.0252L16.2125 14.2317ZM16.7462 15.2867L16.1155 15.9167C15.8542 15.6207 15.659 15.2832 15.5285 14.9157L15.9517 14.4929L16.7462 15.2867ZM19.9867 10.4577L20.9817 9.46218L21.7755 10.2564L20.7797 11.2522L19.9867 10.4577ZM21.5735 12.5672L20.5772 13.5652L19.7825 12.7717L20.7797 11.7739L21.5735 12.5672ZM20.519 11.5129L19.5217 12.5102L18.728 11.7164L19.7252 10.7189L20.519 11.5129ZM19.2607 12.7717L18.2632 13.7689L17.469 12.9747L18.4667 11.9774L19.2607 12.7717ZM18.4667 11.4554L17.675 10.6634L18.6722 9.66593L19.4635 10.4577L18.4667 11.4554ZM18.206 11.7167L17.208 12.7137L16.4165 11.9217L17.4132 10.9239L18.206 11.7167ZM18.2632 14.2912L19.0567 15.0844L18.0612 16.0804L17.268 15.2862L18.2632 14.2912ZM18.525 14.0297L19.5217 13.0324L20.3155 13.8262L19.3175 14.8237L18.525 14.0297ZM20.5772 14.0869L21.3677 14.8792L20.3702 15.8764L19.578 15.0844L20.5772 14.0869ZM20.8375 13.8259L21.8347 12.8287L22.627 13.6204L21.6297 14.6179L20.8375 13.8259ZM21.041 11.5132L22.037 10.5172L22.8305 11.3104L21.8357 12.3064L21.041 11.5132ZM22.667 9.36543L22.037 9.99543L21.2425 9.20118L21.6652 8.77843C22.0332 8.90868 22.371 9.10418 22.667 9.36543ZM21.2605 8.66143L20.982 8.93993L20.6232 8.58118C20.8407 8.59018 21.0537 8.61643 21.2605 8.66143ZM20.1127 8.59268L20.7207 9.20093L19.7255 10.1967L18.933 9.40493L19.6882 8.64968C19.8305 8.62343 19.9722 8.60468 20.1127 8.59268ZM18.9735 8.84243L18.6725 9.14393L18.5442 9.01568C18.6862 8.95068 18.8295 8.89318 18.9735 8.84243ZM18.197 9.19018L18.411 9.40443L17.4132 10.4022L17.043 10.0309C17.4032 9.69268 17.7925 9.41193 18.197 9.19018ZM16.7817 10.2924L17.1527 10.6634L16.1552 11.6607L15.941 11.4462C16.1627 11.0417 16.4435 10.6529 16.7817 10.2924ZM15.7662 11.7937L15.8942 11.9219L15.5927 12.2234C15.6432 12.0789 15.7007 11.9359 15.7662 11.7937ZM15.4 12.9374L16.1552 12.1824L16.9472 12.9744L15.9517 13.9697L15.3427 13.3609C15.355 13.2209 15.3737 13.0794 15.4 12.9374ZM15.6902 14.2314L15.4117 14.5099C15.3662 14.3034 15.3405 14.0899 15.3317 13.8727L15.6902 14.2314ZM14.6217 17.6717C14.3482 17.3982 14.7042 16.3382 14.9507 15.7079C15.1217 16.0577 15.343 16.3827 15.6262 16.6659C15.9097 16.9494 16.235 17.1709 16.5855 17.3422C15.9552 17.5884 14.8947 17.9447 14.6217 17.6717ZM16.3765 16.1779L17.0065 15.5477L17.8002 16.3417L17.3765 16.7644C17.0097 16.6339 16.672 16.4387 16.3765 16.1779ZM17.7822 16.8809L18.061 16.6022L18.42 16.9614C18.2022 16.9527 17.9892 16.9264 17.7822 16.8809ZM18.9307 16.9499L18.3217 16.3409L19.3172 15.3454L20.1097 16.1372L19.3542 16.8932C19.2125 16.9194 19.0712 16.9379 18.9307 16.9499ZM20.0687 16.7004L20.37 16.3992L20.4985 16.5272C20.3562 16.5919 20.213 16.6497 20.0687 16.7004ZM20.8467 16.3517L20.6325 16.1372L21.6297 15.1402L22.0005 15.5109C21.6402 15.8492 21.2512 16.1302 20.8467 16.3517ZM22.2615 15.2499L21.8905 14.8792L22.8877 13.8817L23.1025 14.0959C22.8805 14.5002 22.6 14.8894 22.2615 15.2499ZM23.277 13.7487L23.1487 13.6207L23.45 13.3194C23.3995 13.4634 23.342 13.6067 23.277 13.7487ZM23.643 12.6042L22.8877 13.3597L22.0962 12.5672L23.0917 11.5717L23.7002 12.1807C23.688 12.3212 23.6695 12.4624 23.643 12.6042Z" fill="white"/>
<path d="M12.25 13C12.9845 13 13.6753 12.714 14.1947 12.1947C14.7142 11.6753 15 10.9845 15 10.25C15 9.5155 14.7135 8.82475 14.194 8.3055C13.6747 7.78625 12.9842 7.5 12.2497 7.5C11.5152 7.5 10.825 7.786 10.3058 8.3055C9.78625 8.82475 9.5 9.5155 9.5 10.25C9.5 10.9845 9.786 11.6755 10.3055 12.1947C10.825 12.714 11.5155 13 12.25 13ZM13.8703 8.62975C14.2873 9.04675 14.5215 9.59625 14.5385 10.183C13.9775 10.158 13.4235 9.93225 12.996 9.5045C12.568 9.077 12.3423 8.523 12.3175 7.96175C12.9038 7.97875 13.4535 8.213 13.8703 8.62975ZM10.6298 8.6295C11.012 8.24725 11.5055 8.0175 12.037 7.96875C12.0638 8.59975 12.3157 9.223 12.7965 9.7035C13.2773 10.1843 13.9007 10.4362 14.5315 10.463C14.483 10.9948 14.253 11.4883 13.8705 11.8705C13.4885 12.2525 12.9948 12.4825 12.463 12.5312C12.4365 11.9005 12.184 11.2773 11.7035 10.7968C11.2228 10.316 10.6 10.0638 9.969 10.0373C10.0173 9.50525 10.2473 9.01175 10.6298 8.6295ZM11.5043 10.9955C11.932 11.4233 12.1577 11.9773 12.1827 12.5382C11.596 12.5212 11.0465 12.2873 10.6295 11.8705C10.2128 11.4538 9.9785 10.904 9.96175 10.3173C10.5227 10.3423 11.0768 10.568 11.5043 10.9955Z" fill="white"/>
</g>
<defs>
<filter id="filter0_d_2691_14159" x="0" y="0" width="32" height="38" filterUnits="userSpaceOnUse" color-interpolation-filters="sRGB">
<feFlood flood-opacity="0" result="BackgroundImageFix"/>
<feColorMatrix in="SourceAlpha" type="matrix" values="0 0 0 0 0 0 0 0 0 0 0 0 0 0 0 0 0 0 127 0" result="hardAlpha"/>
<feOffset dy="2"/>
<feGaussianBlur stdDeviation="2"/>
<feComposite in2="hardAlpha" operator="out"/>
<feColorMatrix type="matrix" values="0 0 0 0 0 0 0 0 0 0 0 0 0 0 0 0 0 0 0.12 0"/>
<feBlend mode="normal" in2="BackgroundImageFix" result="effect1_dropShadow_2691_14159"/>
<feBlend mode="normal" in="SourceGraphic" in2="effect1_dropShadow_2691_14159" result="shape"/>
</filter>
<clipPath id="clip0_2691_14159">
<rect width="16" height="16" fill="white" transform="translate(9 7)"/>
</clipPath>
</defs>
</svg>
