<svg width="32" height="38" viewBox="0 0 32 38" fill="none" xmlns="http://www.w3.org/2000/svg">
<g filter="url(#filter0_d_2732_8953)">
<path d="M16 32C22 28 28 20.6274 28 14C28 7.37258 22.6274 2 16 2C9.37258 2 4 7.37258 4 14C4 20.6274 10 28 16 32Z" fill="black"/>
</g>
<circle cx="16" cy="14" r="10" fill="white"/>
<g clip-path="url(#clip0_2732_8953)">
<path d="M22.416 7.87643C20.7037 6.16443 17.5717 6.51968 15.4215 8.67068C14.1612 9.93068 13.5225 11.5259 13.5495 12.9769C13.448 14.5309 13.1695 16.0307 12.4342 16.9002L12.18 16.6457L11.7877 17.0377L11.8965 17.1464L9.25923 19.7837L9.15048 19.6749L8.75873 20.0667L10.1912 21.4999L10.5835 21.1082L10.4747 20.9997L13.1122 18.3624L13.221 18.4709L13.6125 18.0792L13.3932 17.8587C14.2622 17.1239 15.76 16.8457 17.3125 16.7434C18.764 16.7717 20.3607 16.1332 21.622 14.8719C23.7737 12.7209 24.1287 9.58893 22.416 7.87643ZM22.7115 10.6692L22.352 10.3102L22.631 10.0317C22.6762 10.2387 22.7027 10.4517 22.7115 10.6692ZM22.5147 9.62668L22.0917 10.0499L21.2982 9.25618L21.9277 8.62643C22.1887 8.92193 22.3837 9.25968 22.5147 9.62668ZM15.2125 13.2317L16.208 12.2357L17.0022 13.0297L16.0062 14.0252L15.2125 13.2317ZM15.7462 14.2867L15.1155 14.9167C14.8542 14.6207 14.659 14.2832 14.5285 13.9157L14.9517 13.4929L15.7462 14.2867ZM18.9867 9.45768L19.9817 8.46218L20.7755 9.25643L19.7797 10.2522L18.9867 9.45768ZM20.5735 11.5672L19.5772 12.5652L18.7825 11.7717L19.7797 10.7739L20.5735 11.5672ZM19.519 10.5129L18.5217 11.5102L17.728 10.7164L18.7252 9.71893L19.519 10.5129ZM18.2607 11.7717L17.2632 12.7689L16.469 11.9747L17.4667 10.9774L18.2607 11.7717ZM17.4667 10.4554L16.675 9.66343L17.6722 8.66593L18.4635 9.45768L17.4667 10.4554ZM17.206 10.7167L16.208 11.7137L15.4165 10.9217L16.4132 9.92393L17.206 10.7167ZM17.2632 13.2912L18.0567 14.0844L17.0612 15.0804L16.268 14.2862L17.2632 13.2912ZM17.525 13.0297L18.5217 12.0324L19.3155 12.8262L18.3175 13.8237L17.525 13.0297ZM19.5772 13.0869L20.3677 13.8792L19.3702 14.8764L18.578 14.0844L19.5772 13.0869ZM19.8375 12.8259L20.8347 11.8287L21.627 12.6204L20.6297 13.6179L19.8375 12.8259ZM20.041 10.5132L21.037 9.51718L21.8305 10.3104L20.8357 11.3064L20.041 10.5132ZM21.667 8.36543L21.037 8.99543L20.2425 8.20118L20.6652 7.77843C21.0332 7.90868 21.371 8.10418 21.667 8.36543ZM20.2605 7.66143L19.982 7.93993L19.6232 7.58118C19.8407 7.59018 20.0537 7.61643 20.2605 7.66143ZM19.1127 7.59268L19.7207 8.20093L18.7255 9.19668L17.933 8.40493L18.6882 7.64968C18.8305 7.62343 18.9722 7.60468 19.1127 7.59268ZM17.9735 7.84243L17.6725 8.14393L17.5442 8.01568C17.6862 7.95068 17.8295 7.89318 17.9735 7.84243ZM17.197 8.19018L17.411 8.40443L16.4132 9.40218L16.043 9.03093C16.4032 8.69268 16.7925 8.41193 17.197 8.19018ZM15.7817 9.29243L16.1527 9.66343L15.1552 10.6607L14.941 10.4462C15.1627 10.0417 15.4435 9.65293 15.7817 9.29243ZM14.7662 10.7937L14.8942 10.9219L14.5927 11.2234C14.6432 11.0789 14.7007 10.9359 14.7662 10.7937ZM14.4 11.9374L15.1552 11.1824L15.9472 11.9744L14.9517 12.9697L14.3427 12.3609C14.355 12.2209 14.3737 12.0794 14.4 11.9374ZM14.6902 13.2314L14.4117 13.5099C14.3662 13.3034 14.3405 13.0899 14.3317 12.8727L14.6902 13.2314ZM13.6217 16.6717C13.3482 16.3982 13.7042 15.3382 13.9507 14.7079C14.1217 15.0577 14.343 15.3827 14.6262 15.6659C14.9097 15.9494 15.235 16.1709 15.5855 16.3422C14.9552 16.5884 13.8947 16.9447 13.6217 16.6717ZM15.3765 15.1779L16.0065 14.5477L16.8002 15.3417L16.3765 15.7644C16.0097 15.6339 15.672 15.4387 15.3765 15.1779ZM16.7822 15.8809L17.061 15.6022L17.42 15.9614C17.2022 15.9527 16.9892 15.9264 16.7822 15.8809ZM17.9307 15.9499L17.3217 15.3409L18.3172 14.3454L19.1097 15.1372L18.3542 15.8932C18.2125 15.9194 18.0712 15.9379 17.9307 15.9499ZM19.0687 15.7004L19.37 15.3992L19.4985 15.5272C19.3562 15.5919 19.213 15.6497 19.0687 15.7004ZM19.8467 15.3517L19.6325 15.1372L20.6297 14.1402L21.0005 14.5109C20.6402 14.8492 20.2512 15.1302 19.8467 15.3517ZM21.2615 14.2499L20.8905 13.8792L21.8877 12.8817L22.1025 13.0959C21.8805 13.5002 21.6 13.8894 21.2615 14.2499ZM22.277 12.7487L22.1487 12.6207L22.45 12.3194C22.3995 12.4634 22.342 12.6067 22.277 12.7487ZM22.643 11.6042L21.8877 12.3597L21.0962 11.5672L22.0917 10.5717L22.7002 11.1807C22.688 11.3212 22.6695 11.4624 22.643 11.6042Z" fill="black"/>
<path d="M11.25 12C11.9845 12 12.6752 11.714 13.1947 11.1947C13.7142 10.6752 14 9.9845 14 9.25C14 8.5155 13.7135 7.82475 13.194 7.3055C12.6747 6.78625 11.9842 6.5 11.2497 6.5C10.5152 6.5 9.825 6.786 9.30575 7.3055C8.78625 7.82475 8.5 8.5155 8.5 9.25C8.5 9.9845 8.786 10.6755 9.3055 11.1947C9.825 11.714 10.5155 12 11.25 12ZM12.8703 7.62975C13.2873 8.04675 13.5215 8.59625 13.5385 9.183C12.9775 9.158 12.4235 8.93225 11.996 8.5045C11.568 8.077 11.3423 7.523 11.3175 6.96175C11.9038 6.97875 12.4535 7.213 12.8703 7.62975ZM9.62975 7.6295C10.012 7.24725 10.5055 7.0175 11.037 6.96875C11.0637 7.59975 11.3157 8.223 11.7965 8.7035C12.2772 9.18425 12.9007 9.43625 13.5315 9.463C13.483 9.99475 13.253 10.4883 12.8705 10.8705C12.4885 11.2525 11.9948 11.4825 11.463 11.5312C11.4365 10.9005 11.184 10.2773 10.7035 9.79675C10.2228 9.316 9.6 9.06375 8.969 9.03725C9.01725 8.50525 9.24725 8.01175 9.62975 7.6295ZM10.5043 9.9955C10.932 10.4233 11.1577 10.9772 11.1827 11.5382C10.596 11.5212 10.0465 11.2873 9.6295 10.8705C9.21275 10.4538 8.9785 9.904 8.96175 9.31725C9.52275 9.34225 10.0768 9.568 10.5043 9.9955Z" fill="black"/>
</g>
<defs>
<filter id="filter0_d_2732_8953" x="0" y="0" width="32" height="38" filterUnits="userSpaceOnUse" color-interpolation-filters="sRGB">
<feFlood flood-opacity="0" result="BackgroundImageFix"/>
<feColorMatrix in="SourceAlpha" type="matrix" values="0 0 0 0 0 0 0 0 0 0 0 0 0 0 0 0 0 0 127 0" result="hardAlpha"/>
<feOffset dy="2"/>
<feGaussianBlur stdDeviation="2"/>
<feComposite in2="hardAlpha" operator="out"/>
<feColorMatrix type="matrix" values="0 0 0 0 0 0 0 0 0 0 0 0 0 0 0 0 0 0 0.12 0"/>
<feBlend mode="normal" in2="BackgroundImageFix" result="effect1_dropShadow_2732_8953"/>
<feBlend mode="normal" in="SourceGraphic" in2="effect1_dropShadow_2732_8953" result="shape"/>
</filter>
<clipPath id="clip0_2732_8953">
<rect width="16" height="16" fill="white" transform="translate(8 6)"/>
</clipPath>
</defs>
</svg>
