<svg width="32" height="38" viewBox="0 0 32 38" fill="none" xmlns="http://www.w3.org/2000/svg">
<g filter="url(#filter0_d_3060_8971)">
<path d="M16 32C22 28 28 20.6274 28 14C28 7.37258 22.6274 2 16 2C9.37258 2 4 7.37258 4 14C4 20.6274 10 28 16 32Z" fill="#4BA7F2"/>
</g>
<circle cx="16" cy="14" r="10" fill="white"/>
<path fill-rule="evenodd" clip-rule="evenodd" d="M10 7V17H12.0001V13.5H14.5002C16.4763 13.5 18.0003 12.5 18.0003 10.25C18.0003 8 16.4871 7 14.9689 7H10ZM12.0001 9H14.5002C15.4638 9 16.0002 9.52543 16.0002 10.25C16.0002 10.9746 15.3684 11.5 14.5002 11.5H12.0001V9ZM19 14V14.5939L19.5004 15V15.75H16.5003V15.5H17.0003C17.4797 15.5 17.4557 15 17.0003 15H15.5002C15.0002 15 15.0002 15.4521 15.5002 15.5H16.0002V15.75L15.4377 17.0312C15.2964 17.0014 15.148 17 15.0002 17C13.9784 17 13.0001 17.7939 13.0001 19C13.0001 20.2061 13.9784 21 15.0002 21C16.022 21 16.9378 20.1436 16.9378 18.9375C16.9378 18.7867 16.9339 18.6354 16.9065 18.5H17.7503L19.5722 16.5L19.9379 17.2812C19.3833 17.6158 19.0003 18.2297 19.0003 19C19.0003 20.2061 19.9786 21 21.0004 21C22.0222 21 22.938 20.1436 22.938 18.9375C22.938 17.7314 22.0222 17 21.0004 17C20.8503 17 20.7081 17.0295 20.5629 17.0625L20.0004 15.75L20 14.8L19 14ZM16.4065 16.5H18.6003L17.4065 17.75H16.5628C16.4226 17.5634 16.2583 17.4014 16.0627 17.2812L16.4065 16.5ZM15.0002 18C15.6353 18 16.0002 18.5492 16.0002 19C16.0002 19.4508 15.6353 20 15.0002 20C14.3651 20 14.0002 19.4508 14.0002 19C14.0002 18.5492 14.3651 18 15.0002 18ZM21.0004 18C21.6355 18 22.0005 18.5492 22.0005 19C22.0005 19.4508 21.6355 20 21.0004 20C20.3653 20 20.0004 19.4508 20.0004 19C20.0004 18.5492 20.3653 18 21.0004 18Z" fill="#4BA7F2"/>
<defs>
<filter id="filter0_d_3060_8971" x="0" y="0" width="32" height="38" filterUnits="userSpaceOnUse" color-interpolation-filters="sRGB">
<feFlood flood-opacity="0" result="BackgroundImageFix"/>
<feColorMatrix in="SourceAlpha" type="matrix" values="0 0 0 0 0 0 0 0 0 0 0 0 0 0 0 0 0 0 127 0" result="hardAlpha"/>
<feOffset dy="2"/>
<feGaussianBlur stdDeviation="2"/>
<feComposite in2="hardAlpha" operator="out"/>
<feColorMatrix type="matrix" values="0 0 0 0 0 0 0 0 0 0 0 0 0 0 0 0 0 0 0.12 0"/>
<feBlend mode="normal" in2="BackgroundImageFix" result="effect1_dropShadow_3060_8971"/>
<feBlend mode="normal" in="SourceGraphic" in2="effect1_dropShadow_3060_8971" result="shape"/>
</filter>
</defs>
</svg>
