<svg width="32" height="38" viewBox="0 0 32 38" fill="none" xmlns="http://www.w3.org/2000/svg">
<g filter="url(#filter0_d_3060_8889)">
<path d="M16 32C22 28 28 20.6274 28 14C28 7.37258 22.6274 2 16 2C9.37258 2 4 7.37258 4 14C4 20.6274 10 28 16 32Z" fill="#4BA7F2"/>
</g>
<circle cx="16" cy="14" r="10" fill="white"/>
<g clip-path="url(#clip0_3060_8889)">
<path d="M16 5.84375C11.4954 5.84375 7.84375 9.49543 7.84375 14C7.84375 18.5046 11.4954 22.1562 16 22.1562C20.5046 22.1562 24.1562 18.5046 24.1562 14C24.1562 9.49543 20.5046 5.84375 16 5.84375ZM8.68841 13.8838C9.4062 13.6258 10.0782 13.2408 10.6787 12.7344C11.3481 12.1719 11.8825 11.4969 12.2706 10.7488C12.7206 10.9794 13.1594 11.2269 13.5925 11.4912C11.9256 13.54 10.8222 16.0575 10.495 18.8134C9.36951 17.5273 8.6875 15.8433 8.6875 14C8.6875 13.9612 8.6878 13.9224 8.68841 13.8838ZM15.1958 21.2688C13.5976 21.094 12.1541 20.4041 11.035 19.3686C11.2736 16.5176 12.3786 13.9056 14.0931 11.8119C14.6556 12.1775 15.1956 12.5656 15.7187 12.9819C15.6119 13.0944 15.5106 13.2069 15.4094 13.3306C14.3125 14.675 13.8062 16.3681 13.9806 18.1006C14.1001 19.2631 14.5235 20.3467 15.1958 21.2688ZM21.0353 19.3027C19.724 20.5482 17.9513 21.3125 16 21.3125H15.9927C15.1946 20.3997 14.6972 19.2656 14.5713 18.0388C14.4138 16.4694 14.875 14.9281 15.8706 13.7019C15.9662 13.5837 16.0731 13.4656 16.18 13.3531C18.1442 15.0136 19.7914 17.0301 21.0353 19.3027ZM23.0733 12.1378C23.2294 12.7323 23.3125 13.3564 23.3125 14C23.3125 15.8639 22.6152 17.5649 21.4672 18.8563C20.2109 16.6054 18.5673 14.6045 16.6131 12.9481C17.5188 12.1663 18.6438 11.6825 19.8588 11.5587C20.983 11.4445 22.0887 11.6496 23.0733 12.1378ZM19.7245 7.70574C21.1326 8.54075 22.2364 9.83483 22.8298 11.3818C21.8772 11.0069 20.8424 10.8604 19.7969 10.9681C18.4244 11.1087 17.1587 11.6656 16.1462 12.5656C15.6119 12.1381 15.055 11.7331 14.4812 11.3562C15.9069 9.76315 17.6987 8.49953 19.7245 7.70574ZM12.9779 7.33923C13.899 6.92064 14.9223 6.6875 16 6.6875C17.0866 6.6875 18.1179 6.92451 19.0449 7.34966C17.0923 8.19475 15.3646 9.4597 13.975 11.0356C13.5025 10.7431 13.0188 10.4675 12.5181 10.2087C12.76 9.6125 12.9119 8.97688 12.9681 8.31875C12.9996 7.98961 13.0006 7.66266 12.9779 7.33923ZM10.4201 9.27349C10.9766 8.61715 11.6469 8.06029 12.4004 7.63333C12.4058 7.84444 12.4003 8.05628 12.3831 8.26812C12.3325 8.85312 12.1975 9.41563 11.9894 9.95C11.4756 9.70355 10.9525 9.47882 10.4201 9.27349ZM8.72743 13.2313C8.86158 11.9472 9.32805 10.762 10.0393 9.76311C10.6198 9.97907 11.189 10.2187 11.7419 10.4844C11.3875 11.165 10.9038 11.7725 10.2963 12.2844C9.81332 12.6917 9.28335 13.005 8.72743 13.2313Z" fill="#4BA7F2"/>
</g>
<defs>
<filter id="filter0_d_3060_8889" x="0" y="0" width="32" height="38" filterUnits="userSpaceOnUse" color-interpolation-filters="sRGB">
<feFlood flood-opacity="0" result="BackgroundImageFix"/>
<feColorMatrix in="SourceAlpha" type="matrix" values="0 0 0 0 0 0 0 0 0 0 0 0 0 0 0 0 0 0 127 0" result="hardAlpha"/>
<feOffset dy="2"/>
<feGaussianBlur stdDeviation="2"/>
<feComposite in2="hardAlpha" operator="out"/>
<feColorMatrix type="matrix" values="0 0 0 0 0 0 0 0 0 0 0 0 0 0 0 0 0 0 0.12 0"/>
<feBlend mode="normal" in2="BackgroundImageFix" result="effect1_dropShadow_3060_8889"/>
<feBlend mode="normal" in="SourceGraphic" in2="effect1_dropShadow_3060_8889" result="shape"/>
</filter>
<clipPath id="clip0_3060_8889">
<rect width="18" height="18" fill="white" transform="translate(7 5)"/>
</clipPath>
</defs>
</svg>
