<svg width="32" height="38" viewBox="0 0 32 38" fill="none" xmlns="http://www.w3.org/2000/svg">
<g filter="url(#filter0_d_2691_14088)">
<path d="M16 32C22 28 28 20.6274 28 14C28 7.37258 22.6274 2 16 2C9.37258 2 4 7.37258 4 14C4 20.6274 10 28 16 32Z" fill="#FFD771"/>
</g>
<circle cx="16" cy="14" r="10" fill="#FFD771"/>
<g clip-path="url(#clip0_2691_14088)">
<path fill-rule="evenodd" clip-rule="evenodd" d="M10.0185 17.9202H19.7734C20.1961 17.4724 20.6872 16.2046 21.1919 14.9006C21.3525 14.4854 21.5143 14.0666 21.6818 13.6607C20.9492 13.663 19.9523 13.5897 19.7996 13.4106C19.6811 13.2722 19.7244 13.0698 19.9033 12.8151L22.06 10.6655C22.2617 10.4794 22.4372 10.4084 22.5864 10.455C22.7345 10.5003 22.8576 10.6597 22.9544 10.9354C23.0091 11.7647 23.0034 12.5952 22.8826 13.4246C22.8165 13.4641 22.7482 13.4978 22.6787 13.5281C22.4497 14.0492 22.2218 14.6401 21.9951 15.224C21.6066 16.2278 21.2261 17.2119 20.7965 17.9202H21.9803C22.5408 17.9202 22.9988 18.3878 22.9988 18.9601C22.9988 19.5324 22.5408 20 21.9803 20H10.0174C9.45685 20 8.99884 19.5324 8.99884 18.9601C8.99998 18.389 9.45799 17.9202 10.0185 17.9202ZM13.1505 10.2328L13.1198 10.1805L12.3154 10.2979L12.0237 12.1183C11.9691 12.4591 11.6557 12.6894 11.3219 12.6348C10.9881 12.5789 10.7625 12.2591 10.8161 11.9182L11.1806 9.64423C11.2251 9.3674 11.4404 9.16384 11.6979 9.12662L13.2554 8.89864L14.4072 8.64158C15.0635 8.66368 15.5534 8.94516 15.7744 9.53722C15.8063 9.57793 15.8336 9.62446 15.8553 9.67448L16.4728 11.1157L18.4871 11.2436C18.8244 11.2634 19.0818 11.56 19.0613 11.9043C19.042 12.2486 18.7514 12.5115 18.4142 12.4917L16.025 12.3405C15.779 12.3254 15.575 12.1637 15.4907 11.9438L15.3654 11.6519L15.109 12.7906L16.7998 13.8072C16.9468 13.8945 17.0436 14.0352 17.0823 14.1911H17.0846L17.6987 16.6466C17.7819 16.9816 17.5836 17.3224 17.2555 17.4073C16.9274 17.4922 16.5936 17.2898 16.5104 16.9548L15.9612 14.7459L15.82 14.661L14.0631 13.9782L13.9686 14.0317L13.4319 15.4845C13.3932 15.5892 13.3305 15.6765 13.2519 15.7439L11.2387 17.4689C10.979 17.6899 10.5939 17.655 10.3763 17.391C10.1598 17.1258 10.194 16.7326 10.4526 16.5105L12.3074 14.9216C12.443 13.3164 12.7392 11.7577 13.1505 10.2328ZM15.5978 6C16.2404 6 16.761 6.53157 16.761 7.1876C16.761 7.84364 16.2404 8.37521 15.5978 8.37521C14.9552 8.37521 14.4346 7.84364 14.4346 7.1876C14.4346 6.53157 14.9552 6 15.5978 6Z" fill="white"/>
</g>
<defs>
<filter id="filter0_d_2691_14088" x="0" y="0" width="32" height="38" filterUnits="userSpaceOnUse" color-interpolation-filters="sRGB">
<feFlood flood-opacity="0" result="BackgroundImageFix"/>
<feColorMatrix in="SourceAlpha" type="matrix" values="0 0 0 0 0 0 0 0 0 0 0 0 0 0 0 0 0 0 127 0" result="hardAlpha"/>
<feOffset dy="2"/>
<feGaussianBlur stdDeviation="2"/>
<feComposite in2="hardAlpha" operator="out"/>
<feColorMatrix type="matrix" values="0 0 0 0 0 0 0 0 0 0 0 0 0 0 0 0 0 0 0.12 0"/>
<feBlend mode="normal" in2="BackgroundImageFix" result="effect1_dropShadow_2691_14088"/>
<feBlend mode="normal" in="SourceGraphic" in2="effect1_dropShadow_2691_14088" result="shape"/>
</filter>
<clipPath id="clip0_2691_14088">
<rect width="14" height="14" fill="white" transform="translate(9 6)"/>
</clipPath>
</defs>
</svg>
